<?xml version="1.0" encoding="utf-8"?>
<!-- Generator: Adobe Illustrator 27.5.0, SVG Export Plug-In . SVG Version: 6.00 Build 0)  -->
<svg version="1.1" xmlns="http://www.w3.org/2000/svg" xmlns:xlink="http://www.w3.org/1999/xlink" x="0px" y="0px"
	 viewBox="0 0 3710 3710" style="enable-background:new 0 0 3710 3710;" xml:space="preserve">
<g id="Background">
	<g>
		<g>
			<rect style="fill:#FFFFFF;" width="3710" height="3710"/>
		</g>
	</g>
</g>
<g id="Illustration">
	<g>
		<linearGradient id="SVGID_1_" gradientUnits="userSpaceOnUse" x1="3498.5911" y1="3677.4526" x2="1532.5133" y2="1584.5317">
			<stop  offset="0" style="stop-color:#DAE3FE"/>
			<stop  offset="1" style="stop-color:#E9EFFD"/>
		</linearGradient>
		<path style="fill:url(#SVGID_1_);" d="M2908.278,2837.781c-72.579,74.813-137.521,118.79-187.243,151.99
			c-484.925,323.789-1039.247,230.465-1210.63,198.567c-276.505-51.463-509.913-87.769-710.452-268.948
			c-455.686-411.695-433.523-1270.52-85.323-1802.524c41.286-63.081,388.959-578.439,944.481-651.058
			c13.587-1.776,23.725-2.788,32.604-3.728c85.938-9.099,618.478-57.121,1052.712,306.68
			c62.159,52.076,162.189,146.008,254.95,289.271C3338.555,1581.862,3339.63,2393.161,2908.278,2837.781z"/>
		<g>
			<g>
				<path style="fill:#91B3FA;" d="M2266.389,768.497c-0.717,0-1.44-0.223-2.057-0.69c-1.503-1.137-1.8-3.28-0.663-4.783
					c2.763-3.653,5.587-7.263,8.477-10.837c1.183-1.463,3.33-1.69,4.8-0.507c1.467,1.187,1.693,3.333,0.507,4.8
					c-2.843,3.513-5.62,7.07-8.337,10.663C2268.442,768.03,2267.422,768.497,2266.389,768.497z"/>
				<path style="fill:#91B3FA;" d="M3010.491,948.119c-1.627,0-3.07-1.167-3.36-2.823c-1.59-9.093-3.507-18.233-5.7-27.163
					c-0.447-1.83,0.673-3.68,2.503-4.13c1.82-0.443,3.68,0.673,4.13,2.503c2.227,9.08,4.177,18.37,5.793,27.613
					c0.323,1.857-0.917,3.623-2.773,3.95C3010.885,948.102,3010.684,948.119,3010.491,948.119z M2991.511,877.25
					c-1.393,0-2.7-0.857-3.207-2.243c-3.153-8.63-6.653-17.29-10.403-25.73c-0.763-1.723,0.013-3.74,1.733-4.507
					c1.737-0.777,3.74,0.017,4.507,1.733c3.81,8.583,7.37,17.386,10.577,26.163c0.647,1.77-0.263,3.73-2.037,4.377
					C2992.298,877.183,2991.901,877.25,2991.511,877.25z M2960.348,810.82c-1.177,0-2.32-0.61-2.957-1.7
					c-2.983-5.14-6.137-10.31-9.37-15.363c-1.763-2.75-3.55-5.473-5.363-8.17c-1.05-1.563-0.637-3.683,0.93-4.737
					c1.563-1.06,3.683-0.633,4.737,0.93c1.84,2.737,3.653,5.5,5.443,8.297c3.29,5.137,6.493,10.39,9.53,15.617
					c0.947,1.63,0.39,3.72-1.24,4.667C2961.518,810.67,2960.928,810.82,2960.348,810.82z M2918.135,750.81
					c-0.973,0-1.937-0.413-2.614-1.213c-5.96-7.067-12.213-14-18.586-20.603c-1.31-1.357-1.27-3.517,0.087-4.827
					c1.36-1.31,3.52-1.267,4.827,0.087c6.477,6.713,12.833,13.757,18.893,20.943c1.213,1.44,1.03,3.593-0.41,4.81
					C2919.692,750.547,2918.912,750.81,2918.135,750.81z M2305.272,724.034c-0.88,0-1.757-0.337-2.423-1.01
					c-1.327-1.34-1.317-3.5,0.02-4.827c6.647-6.587,13.607-13.037,20.697-19.173c1.417-1.233,3.58-1.083,4.813,0.347
					c1.233,1.423,1.08,3.58-0.347,4.813c-6.97,6.04-13.82,12.383-20.356,18.86C2307.008,723.704,2306.138,724.034,2305.272,724.034z
					 M2866.099,699.131c-0.767,0-1.54-0.26-2.18-0.79c-7.077-5.883-14.45-11.603-21.917-17c-1.527-1.107-1.87-3.24-0.767-4.767
					c1.1-1.53,3.237-1.873,4.767-0.767c7.59,5.49,15.087,11.303,22.283,17.286c1.447,1.203,1.647,3.357,0.44,4.807
					C2868.052,698.711,2867.079,699.131,2866.099,699.131z M2361.725,677.174c-1.083,0-2.147-0.513-2.81-1.47
					c-1.073-1.55-0.687-3.677,0.863-4.75c4.223-2.923,8.56-5.81,12.9-8.58c3.587-2.293,7.197-4.53,10.823-6.7
					c1.62-0.96,3.713-0.437,4.683,1.177c0.967,1.62,0.44,3.713-1.177,4.683c-3.573,2.137-7.123,4.333-10.653,6.593
					c-4.27,2.727-8.537,5.563-12.69,8.44C2363.071,676.977,2362.395,677.174,2361.725,677.174z M2805.776,657.427
					c-0.57,0-1.15-0.143-1.683-0.447c-7.997-4.543-16.263-8.877-24.573-12.883c-1.697-0.817-2.41-2.857-1.59-4.557
					c0.816-1.697,2.856-2.42,4.556-1.59c8.443,4.07,16.85,8.477,24.98,13.097c1.64,0.93,2.213,3.013,1.28,4.653
					C2808.119,656.807,2806.962,657.427,2805.776,657.427z M2425.458,640.811c-1.293,0-2.53-0.737-3.103-1.987
					c-0.79-1.713-0.04-3.74,1.673-4.527c8.513-3.917,17.267-7.59,26.017-10.923c1.74-0.68,3.73,0.21,4.403,1.977
					c0.67,1.76-0.213,3.733-1.977,4.403c-8.607,3.277-17.217,6.893-25.59,10.743
					C2426.418,640.711,2425.934,640.811,2425.458,640.811z M2739.052,626.954c-0.38,0-0.763-0.063-1.14-0.197
					c-8.697-3.08-17.596-5.907-26.45-8.393c-1.817-0.51-2.873-2.397-2.364-4.21c0.513-1.813,2.397-2.867,4.21-2.363
					c9,2.53,18.043,5.4,26.883,8.533c1.777,0.63,2.707,2.58,2.077,4.357C2741.773,626.081,2740.456,626.954,2739.052,626.954z
					 M2494.557,616.161c-1.517,0-2.9-1.017-3.3-2.557c-0.473-1.823,0.62-3.687,2.447-4.16c9.063-2.353,18.326-4.43,27.53-6.163
					c1.86-0.347,3.64,0.87,3.987,2.72c0.35,1.853-0.87,3.637-2.72,3.987c-9.053,1.707-18.167,3.747-27.083,6.063
					C2495.131,616.128,2494.841,616.161,2494.557,616.161z M2668.03,608.584c-0.187,0-0.377-0.013-0.567-0.047
					c-9.07-1.52-18.326-2.75-27.506-3.66c-1.877-0.187-3.247-1.857-3.06-3.733c0.183-1.873,1.917-3.217,3.733-3.06
					c9.333,0.923,18.74,2.177,27.96,3.72c1.86,0.31,3.113,2.07,2.803,3.93C2671.113,607.404,2669.666,608.584,2668.03,608.584z
					 M2566.924,604.078c-1.767,0-3.263-1.36-3.4-3.15c-0.143-1.88,1.263-3.523,3.14-3.667c9.35-0.72,18.83-1.13,28.183-1.22h0.033
					c1.87,0,3.396,1.507,3.413,3.38c0.017,1.887-1.497,3.427-3.38,3.447c-9.2,0.09-18.53,0.493-27.723,1.2
					C2567.1,604.074,2567.01,604.078,2566.924,604.078z"/>
				<path style="fill:#91B3FA;" d="M3016.514,1007.096c-1.837,0-3.35-1.46-3.41-3.307c-0.137-4.507-0.347-9.013-0.633-13.52
					c-0.12-1.88,1.306-3.503,3.19-3.623c1.833-0.067,3.503,1.307,3.623,3.19c0.293,4.58,0.503,9.16,0.647,13.74
					c0.057,1.887-1.423,3.46-3.306,3.52C3016.588,1007.096,3016.551,1007.096,3016.514,1007.096z"/>
			</g>
			<g>
				<path style="fill:#91B3FA;" d="M2900.595,1309.1c-0.85,0-1.703-0.317-2.366-0.953c-1.357-1.307-1.4-3.467-0.094-4.827
					c3.133-3.26,6.203-6.563,9.217-9.91c1.26-1.403,3.42-1.51,4.82-0.253c1.4,1.26,1.513,3.42,0.253,4.82
					c-3.06,3.4-6.183,6.763-9.37,10.077C2902.385,1308.75,2901.492,1309.1,2900.595,1309.1z"/>
				<path style="fill:#91B3FA;" d="M2599.75,1437.526c-8.463,0-17.06-0.26-25.53-0.773c-1.88-0.113-3.313-1.73-3.2-3.613
					s1.793-3.237,3.613-3.2c8.333,0.503,16.79,0.76,25.133,0.76l2.16-0.003c0.007,0,0.013,0,0.013,0c1.88,0,3.406,1.517,3.417,3.397
					c0.01,1.887-1.513,3.42-3.396,3.43L2599.75,1437.526z M2646.593,1434.89c-1.713,0-3.193-1.287-3.39-3.03
					c-0.21-1.873,1.137-3.563,3.01-3.777c8.997-1.013,18.087-2.35,27.017-3.967c1.863-0.34,3.63,0.9,3.967,2.753
					c0.333,1.853-0.897,3.63-2.753,3.967c-9.077,1.643-18.317,3-27.463,4.033C2646.85,1434.883,2646.72,1434.89,2646.593,1434.89z
					 M2529.99,1431.67c-0.187,0-0.38-0.017-0.573-0.047c-9.073-1.533-18.223-3.39-27.196-5.52c-1.837-0.433-2.97-2.273-2.533-4.107
					c0.43-1.833,2.277-2.98,4.107-2.533c8.83,2.093,17.833,3.92,26.763,5.427c1.857,0.317,3.11,2.077,2.797,3.937
					C2533.071,1430.493,2531.627,1431.67,2529.99,1431.67z M2717.353,1420.56c-1.477,0-2.837-0.963-3.273-2.447
					c-0.533-1.81,0.5-3.707,2.307-4.24c8.673-2.56,17.397-5.45,25.923-8.6c1.767-0.65,3.733,0.253,4.386,2.02
					c0.65,1.77-0.253,3.733-2.02,4.387c-8.673,3.2-17.54,6.14-26.356,8.74C2717.996,1420.516,2717.669,1420.56,2717.353,1420.56z
					 M2460.101,1413.57c-0.377,0-0.76-0.063-1.137-0.193c-8.693-3.07-17.39-6.47-25.853-10.1c-1.733-0.743-2.533-2.75-1.79-4.483
					c0.743-1.733,2.75-2.537,4.483-1.79c8.323,3.573,16.88,6.913,25.433,9.933c1.777,0.63,2.71,2.58,2.083,4.357
					C2462.824,1412.693,2461.508,1413.57,2460.101,1413.57z M2784.563,1394.173c-1.257,0-2.463-0.693-3.06-1.893
					c-0.84-1.69-0.15-3.737,1.537-4.577c8.12-4.033,16.21-8.39,24.053-12.95c1.627-0.95,3.717-0.397,4.667,1.233
					c0.947,1.63,0.397,3.72-1.233,4.667c-7.973,4.637-16.196,9.067-24.446,13.163
					C2785.589,1394.06,2785.072,1394.173,2784.563,1394.173z M2394.365,1383.74c-0.567,0-1.14-0.14-1.67-0.44
					c-8.03-4.517-16.01-9.363-23.72-14.403c-1.58-1.03-2.023-3.147-0.99-4.724c1.03-1.577,3.15-2.02,4.723-0.99
					c7.587,4.957,15.437,9.727,23.333,14.17c1.643,0.923,2.227,3.003,1.3,4.647
					C2396.715,1383.113,2395.558,1383.74,2394.365,1383.74z M2846.255,1356.627c-1.053,0-2.09-0.483-2.757-1.397
					c-1.113-1.52-0.783-3.657,0.737-4.77c7.327-5.363,14.557-11.033,21.49-16.85c1.453-1.203,3.6-1.02,4.81,0.423
					c1.21,1.443,1.02,3.597-0.423,4.81c-7.047,5.91-14.396,11.673-21.843,17.123
					C2847.662,1356.413,2846.955,1356.627,2846.255,1356.627z M2334.788,1343.017c-0.76,0-1.527-0.253-2.16-0.773
					c-7.14-5.853-14.16-12.01-20.867-18.3c-1.373-1.29-1.443-3.45-0.153-4.827c1.29-1.37,3.447-1.44,4.827-0.153
					c6.593,6.187,13.497,12.243,20.52,18c1.46,1.197,1.67,3.347,0.477,4.803C2336.755,1342.59,2335.778,1343.017,2334.788,1343.017z
					 M2283.168,1292.561c-0.96,0-1.913-0.403-2.59-1.19c-6.01-6.993-11.86-14.273-17.383-21.633c-1.13-1.51-0.827-3.65,0.68-4.78
					c1.513-1.127,3.65-0.823,4.78,0.68c5.433,7.243,11.19,14.403,17.103,21.287c1.227,1.43,1.063,3.583-0.367,4.813
					C2284.749,1292.291,2283.958,1292.561,2283.168,1292.561z M2241.002,1233.961c-1.163,0-2.293-0.593-2.933-1.663
					c-4.733-7.923-9.257-16.093-13.45-24.28c-0.86-1.68-0.197-3.737,1.48-4.593c1.68-0.867,3.733-0.2,4.593,1.48
					c4.127,8.057,8.58,16.096,13.237,23.893c0.967,1.617,0.44,3.713-1.18,4.68
					C2242.202,1233.804,2241.599,1233.961,2241.002,1233.961z M2209.442,1169.025c-1.373,0-2.667-0.833-3.187-2.193
					c-3.293-8.6-6.34-17.43-9.06-26.243c-0.557-1.8,0.453-3.713,2.253-4.267c1.82-0.553,3.713,0.453,4.267,2.253
					c2.677,8.67,5.677,17.357,8.913,25.817c0.673,1.76-0.207,3.733-1.967,4.406
					C2210.262,1168.951,2209.849,1169.025,2209.442,1169.025z M2189.592,1099.598c-1.603,0-3.033-1.133-3.346-2.763
					c-1.753-9.057-3.223-18.28-4.367-27.417c-0.233-1.87,1.093-3.577,2.963-3.81c1.867-0.217,3.577,1.093,3.81,2.963
					c1.123,8.983,2.57,18.057,4.293,26.963c0.36,1.853-0.85,3.643-2.7,4C2190.026,1099.578,2189.806,1099.598,2189.592,1099.598z"/>
				<path style="fill:#91B3FA;" d="M2182.093,1027.582c-1.86,0-3.38-1.49-3.413-3.357c-0.077-4.59-0.08-9.173-0.007-13.76
					c0.03-1.863,1.553-3.357,3.413-3.357c0.017,0,0.037,0,0.057,0c1.883,0.03,3.386,1.583,3.356,3.47
					c-0.073,4.507-0.07,9.017,0.007,13.533c0.03,1.883-1.47,3.437-3.357,3.47
					C2182.129,1027.582,2182.109,1027.582,2182.093,1027.582z"/>
			</g>
			<g>
				<path style="fill:#91B3FA;" d="M2282.002,971.606c-0.525,2.071,0.322,4.248,2.108,5.419l50.98,33.419
					c-0.517,28.463,3.501,57.213,12.358,85.138l-39.316,46.531c-1.38,1.632-1.57,3.959-0.478,5.795l37.415,62.82
					c1.094,1.836,3.233,2.775,5.323,2.34l59.641-12.408c20.338,21.086,43.701,38.313,68.975,51.415l5.105,60.743
					c0.179,2.129,1.689,3.91,3.76,4.435l70.876,17.963c2.072,0.525,4.249-0.322,5.419-2.109l33.419-50.979
					c28.462,0.516,57.212-3.502,85.137-12.358l46.532,39.317c1.632,1.379,3.958,1.571,5.795,0.478l62.82-37.416
					c1.836-1.094,2.776-3.231,2.341-5.323l-12.409-59.641c21.088-20.337,38.314-43.7,51.416-68.974l60.744-5.104
					c2.128-0.179,3.91-1.69,4.434-3.761l17.963-70.876c0.526-2.072-0.322-4.248-2.109-5.419l-50.979-33.42
					c0.518-28.462-3.501-57.212-12.357-85.138l39.318-46.532c1.378-1.632,1.57-3.958,0.478-5.794l-37.416-62.82
					c-1.093-1.836-3.231-2.776-5.323-2.34l-59.641,12.408c-20.336-21.088-43.702-38.314-68.975-51.416l-5.104-60.742
					c-0.177-2.13-1.689-3.911-3.76-4.436l-70.876-17.963c-2.071-0.525-4.247,0.321-5.419,2.108l-33.42,50.978
					c-28.462-0.517-57.212,3.503-85.137,12.358l-46.533-39.318c-1.63-1.379-3.958-1.57-5.794-0.476l-62.819,37.415
					c-1.835,1.093-2.775,3.23-2.341,5.323l12.408,59.641c-21.087,20.336-38.313,43.702-51.416,68.974l-60.743,5.105
					c-2.129,0.179-3.91,1.689-4.436,3.76L2282.002,971.606z"/>
				<g>
					<path style="fill:#BDD0FB;" d="M2602.183,1085.082c-0.023,0-0.043,0-0.07,0c-18.707-0.017-36.29-7.32-49.506-20.563
						c-13.22-13.24-20.49-30.837-20.47-49.546c0.017-18.71,7.32-36.293,20.563-49.51c27.333-27.28,71.77-27.243,99.056,0.093
						c27.283,27.336,27.24,71.773-0.093,99.056C2638.437,1077.815,2620.867,1085.082,2602.183,1085.082z M2602.18,955.262
						c-15.297,0-30.593,5.813-42.247,17.447c-11.307,11.287-17.543,26.3-17.556,42.273c-0.017,15.973,6.19,30.997,17.476,42.303l0,0
						c11.287,11.307,26.297,17.543,42.27,17.557c0.02,0,0.04,0,0.06,0c15.953,0,30.953-6.203,42.246-17.477
						c23.337-23.297,23.373-61.236,0.08-84.576C2632.847,961.106,2617.513,955.262,2602.18,955.262z"/>
				</g>
				<path style="fill:#BDD0FB;" d="M2604.03,1196.918c-14.97,0-30.03-1.863-44.92-5.637
					c-47.006-11.913-86.563-41.423-111.376-83.086l0,0c-0.567-0.953-1.13-1.917-1.68-2.88c-0.003-0.007-0.007-0.01-0.007-0.017
					c-0.01-0.017-0.02-0.033-0.03-0.05c-5.223-9.15-9.653-18.74-13.207-28.593c-0.07-0.197-0.14-0.393-0.21-0.59
					c-0.017-0.05-0.037-0.1-0.053-0.15c-0.333-0.94-0.66-1.88-0.98-2.827l9.707-3.267c3.87,11.487,9.003,22.636,15.26,33.133
					c22.12,37.146,56.66,64.05,97.816,76.386c2.403,0.723,4.83,1.393,7.277,2.013c44.363,11.243,90.436,4.537,129.749-18.88
					c53.753-32.016,83.616-89.043,83.609-147.486c-0.003-29.793-7.77-59.953-24.09-87.356
					c-48.336-81.153-153.686-107.856-234.845-59.52c-26.687,15.893-48.523,38.67-63.146,65.866l-9.02-4.847
					c15.503-28.833,38.646-52.973,66.926-69.82c86.01-51.216,197.652-22.93,248.885,63.08c17.293,29.04,25.523,61.003,25.527,92.576
					c0.01,61.936-31.64,122.376-88.606,156.306C2668.146,1188.228,2636.323,1196.918,2604.03,1196.918z"/>
			</g>
		</g>
		<g>
			<path style="fill:#91B3FA;" d="M489.236,575.216c-6.901-15.945,10.995-31.296,25.846-22.278
				c150.807,91.571,527.933,381.527,583.286,1015.843c69.45,795.844,290.905,1044.79,528.58,1174.959
				c0,0-293.445-22.815-527.986-273.348C523.114,1855.277,611.93,858.731,489.236,575.216z"/>
			<path style="fill:#FFFFFF;" d="M623.099,799.71c34.258,82.938,66.863,166.508,96.365,251.151
				c29.941,84.472,57.309,169.815,81.976,255.887c24.335,86.159,47.051,172.762,66.054,260.201
				c19.395,87.349,35.016,175.434,50.391,263.927c15.86,88.356,31.335,177.457,55.979,265.244
				c24.512,87.625,59.878,173.733,109.929,250.826c12.498,19.208,25.395,38.264,39.286,56.369
				c13.561,18.371,27.94,36.146,42.63,53.656c29.563,34.882,61.491,67.862,95.721,98.323
				c68.625,60.756,146.45,111.014,228.676,150.038c8.654,4.107,18.999,0.42,23.107-8.234c4.033-8.498,0.551-18.627-7.771-22.879
				l-0.059-0.03c-19.731-10.057-39.322-20.328-58.388-31.437c-9.624-5.403-18.988-11.222-28.457-16.862
				c-9.244-5.991-18.724-11.626-27.773-17.897c-36.61-24.465-71.458-51.471-104.136-80.92
				c-65.575-58.513-122.743-127.128-170.687-200.691c-23.564-37.064-44.356-75.799-62.094-116.001
				c-17.71-40.219-32.357-81.861-44.639-124.37c-24.583-85.066-40.628-173.129-57.122-261.365
				c-16.612-88.235-33.913-176.788-54.829-264.491c-10.339-43.874-21.465-87.558-33.367-131.02
				c-5.826-21.764-12.072-43.412-18.279-65.067c-6.414-21.596-12.947-43.154-19.654-64.653
				c-26.988-85.954-56.587-171.043-88.831-255.077c-32.647-83.879-67.51-166.865-105.51-248.367
				c-1.087-2.33-3.855-3.338-6.184-2.251C623.172,794.772,622.16,797.425,623.099,799.71z"/>
		</g>
		<g>
			<g>
				<path style="fill:#BDD0FB;" d="M1452.581,2956.075c2.434,20.877-17.245,37.455-37.481,31.775
					c-111.659-31.338-419.344-148.491-578.49-515.855c-134.391-310.223-236.744-465.667-288.098-533.014
					c-10.859-14.241,2.774-34.068,19.968-29.059C758.182,1965.177,1364.397,2199.593,1452.581,2956.075z"/>
				<path style="fill:#FFFFFF;" d="M1427.199,2968.948c-0.26,0.452-0.566,0.884-0.92,1.292c-2.968,3.424-8.151,3.793-11.575,0.825
					c-3.882-3.366-390.534-341.395-596.881-764.298c-1.984-4.07-0.295-8.983,3.777-10.975c4.074-1.986,8.986-0.296,10.975,3.778
					c204.844,419.825,589.024,755.752,592.879,759.095C1428.471,2961.279,1429.117,2965.611,1427.199,2968.948z"/>
			</g>
		</g>
		<g>
			
				<linearGradient id="SVGID_00000026880131476456160120000011171665053185926280_" gradientUnits="userSpaceOnUse" x1="1425.1461" y1="2638.4807" x2="1840.9664" y2="3314.9873">
				<stop  offset="0" style="stop-color:#09005D"/>
				<stop  offset="1" style="stop-color:#1A0F91"/>
			</linearGradient>
			<path style="fill:url(#SVGID_00000026880131476456160120000011171665053185926280_);" d="M1883.014,3004.264
				c-1.309,89.842-116.625,185.582-249.86,185.582c-133.235,0-233.971-70.218-241.243-159.774
				c-17.346-213.618,108.008-211.39,241.243-211.39C1766.39,2818.682,1886.248,2782.221,1883.014,3004.264z"/>
			
				<linearGradient id="SVGID_00000095335447355546811720000012703941033923013030_" gradientUnits="userSpaceOnUse" x1="1485.8876" y1="2642.6047" x2="1872.9227" y2="3272.2805">
				<stop  offset="0" style="stop-color:#09005D"/>
				<stop  offset="1" style="stop-color:#1A0F91"/>
			</linearGradient>
			<path style="fill:url(#SVGID_00000095335447355546811720000012703941033923013030_);" d="M1980.946,2873.13
				c3.918,48.601-143.641,100.154-329.584,115.146c-185.943,14.992-339.856-12.253-343.775-60.854
				c-3.918-48.601,143.641-100.154,329.584-115.146C1823.115,2797.284,1977.028,2824.529,1980.946,2873.13z"/>
			
				<linearGradient id="SVGID_00000092441276921219616230000011057329762488966822_" gradientUnits="userSpaceOnUse" x1="1524.007" y1="2619.1746" x2="1911.0421" y2="3248.8501">
				<stop  offset="0" style="stop-color:#09005D"/>
				<stop  offset="1" style="stop-color:#1A0F91"/>
			</linearGradient>
			<path style="fill:url(#SVGID_00000092441276921219616230000011057329762488966822_);" d="M1980.946,2787.683
				c3.918,48.601-143.641,100.154-329.584,115.146c-185.943,14.992-339.856-12.254-343.775-60.855
				c-3.918-48.601,143.641-100.153,329.584-115.146C1823.115,2711.836,1977.028,2739.082,1980.946,2787.683z"/>
			
				<linearGradient id="SVGID_00000090253375327628084160000007322109542994924976_" gradientUnits="userSpaceOnUse" x1="1562.1265" y1="2595.7441" x2="1949.1616" y2="3225.4197">
				<stop  offset="0" style="stop-color:#09005D"/>
				<stop  offset="1" style="stop-color:#1A0F91"/>
			</linearGradient>
			<path style="fill:url(#SVGID_00000090253375327628084160000007322109542994924976_);" d="M1980.946,2702.235
				c3.918,48.601-143.641,100.154-329.584,115.146c-185.943,14.992-339.856-12.253-343.775-60.854
				c-3.918-48.601,143.641-100.154,329.584-115.146C1823.115,2626.388,1977.028,2653.634,1980.946,2702.235z"/>
			
				<linearGradient id="SVGID_00000097488824163442525820000016808920106439833730_" gradientUnits="userSpaceOnUse" x1="1600.2458" y1="2572.3137" x2="1987.281" y2="3201.9893">
				<stop  offset="0" style="stop-color:#09005D"/>
				<stop  offset="1" style="stop-color:#1A0F91"/>
			</linearGradient>
			<path style="fill:url(#SVGID_00000097488824163442525820000016808920106439833730_);" d="M1980.946,2616.787
				c3.918,48.601-143.641,100.154-329.584,115.146c-185.943,14.992-339.856-12.254-343.775-60.855
				c-3.918-48.601,143.641-100.154,329.584-115.146S1977.028,2568.186,1980.946,2616.787z"/>
			<g>
				
					<linearGradient id="SVGID_00000129191259473144056300000003816269774072197542_" gradientUnits="userSpaceOnUse" x1="1400.0048" y1="2972.5022" x2="1862.7726" y2="2972.5022">
					<stop  offset="0" style="stop-color:#4F52FF"/>
					<stop  offset="1" style="stop-color:#4042E2"/>
				</linearGradient>
				<path style="fill:url(#SVGID_00000129191259473144056300000003816269774072197542_);" d="M1551.133,2996.898
					c-55.223,0-105.753-4.062-147.502-12.059c-2.423-0.462-4.01-2.802-3.546-5.225c0.462-2.42,2.791-4.01,5.225-3.545
					c65.327,12.508,152.582,15.264,245.692,7.756c76.189-6.145,147.441-18.432,206.052-35.539c2.372-0.691,4.847,0.667,5.539,3.035
					c0.691,2.368-0.667,4.847-3.035,5.539c-59.185,17.272-131.054,29.675-207.835,35.866
					C1617.136,2995.515,1583.337,2996.898,1551.133,2996.898z"/>
				
					<linearGradient id="SVGID_00000159432979647962037680000016503718271091459763_" gradientUnits="userSpaceOnUse" x1="1367.7205" y1="2875.3057" x2="1927.2513" y2="2875.3057">
					<stop  offset="0" style="stop-color:#4F52FF"/>
					<stop  offset="1" style="stop-color:#4042E2"/>
				</linearGradient>
				<path style="fill:url(#SVGID_00000159432979647962037680000016503718271091459763_);" d="M1552.059,2911.372
					c-71.749,0-135.868-6.749-181.095-19.627c-2.372-0.676-3.746-3.146-3.072-5.519c0.678-2.373,3.138-3.744,5.519-3.073
					c64.446,18.352,168.217,24.041,277.591,15.225c108.191-8.724,209.091-30.678,269.911-58.729
					c2.242-1.029,4.893-0.055,5.927,2.185c1.031,2.239,0.054,4.893-2.185,5.927c-61.723,28.465-163.755,50.715-272.934,59.518
					C1617.651,2910.027,1584.092,2911.372,1552.059,2911.372z"/>
				
					<linearGradient id="SVGID_00000008853912357420048530000006426616527853946243_" gradientUnits="userSpaceOnUse" x1="1357.1819" y1="2789.8896" x2="1927.2513" y2="2789.8896">
					<stop  offset="0" style="stop-color:#4F52FF"/>
					<stop  offset="1" style="stop-color:#4042E2"/>
				</linearGradient>
				<path style="fill:url(#SVGID_00000008853912357420048530000006426616527853946243_);" d="M1551.141,2825.988
					c-77.469,0-145.262-7.926-190.89-22.972c-2.344-0.772-3.615-3.297-2.844-5.639c0.772-2.344,3.288-3.617,5.639-2.844
					c63.498,20.938,171.145,27.811,287.956,18.397c108.184-8.722,209.085-30.678,269.911-58.731
					c2.242-1.027,4.893-0.052,5.927,2.185c1.031,2.239,0.054,4.893-2.185,5.927c-61.729,28.467-163.762,50.72-272.934,59.52
					C1617.125,2824.623,1583.298,2825.988,1551.141,2825.988z"/>
				
					<linearGradient id="SVGID_00000107578777498539447630000017480888522932061833_" gradientUnits="userSpaceOnUse" x1="1387.4438" y1="2704.7397" x2="1925.8519" y2="2704.7397">
					<stop  offset="0" style="stop-color:#4F52FF"/>
					<stop  offset="1" style="stop-color:#4042E2"/>
				</linearGradient>
				<path style="fill:url(#SVGID_00000107578777498539447630000017480888522932061833_);" d="M1551.739,2740.499
					c-61.452,0-117.344-4.967-160.796-14.623c-2.407-0.534-3.927-2.92-3.391-5.327c0.534-2.409,2.928-3.929,5.327-3.391
					c65.34,14.518,159.425,18.28,258.123,10.323c107.22-8.646,207.607-30.362,268.533-58.096c2.242-1.027,4.891-0.031,5.914,2.215
					c1.023,2.244,0.031,4.891-2.216,5.914c-61.817,28.14-163.317,50.146-271.512,58.869
					C1617.535,2739.141,1583.874,2740.499,1551.739,2740.499z"/>
			</g>
			
				<linearGradient id="SVGID_00000132069939070878371960000013256054471068171171_" gradientUnits="userSpaceOnUse" x1="1601.6547" y1="442.1426" x2="1734.7654" y2="2792.093">
				<stop  offset="0" style="stop-color:#FF928E"/>
				<stop  offset="1" style="stop-color:#FE7062"/>
			</linearGradient>
			<path style="fill:url(#SVGID_00000132069939070878371960000013256054471068171171_);" d="M1182.786,2297.686
				c-22.584-79.989-60.943-154.742-112.604-219.852c-110.694-139.51-291.278-423.23-313.506-810.458
				c-32.331-563.241,467.199-845.23,923.027-806.948s905.616,377.681,856.376,901.666
				c-30.297,322.409-210.754,566.961-345.113,707.405c-85.319,89.183-146.177,198.415-179.122,317.358
				c-40.323,145.582-136.279,327.006-364.359,338.066C1352.358,2739.235,1229.783,2464.142,1182.786,2297.686z"/>
			
				<linearGradient id="SVGID_00000059993887370938422170000000695965397316918199_" gradientUnits="userSpaceOnUse" x1="2977.8386" y1="631.9084" x2="2547.7825" y2="1159.2393">
				<stop  offset="0" style="stop-color:#E1473D"/>
				<stop  offset="1" style="stop-color:#E9605A"/>
			</linearGradient>
			<path style="fill:url(#SVGID_00000059993887370938422170000000695965397316918199_);" d="M1722.875,2585.826l159.494-1037.364
				c3.295-21.431,13.842-35.823,23.557-32.146c9.715,3.678,14.92,24.032,11.625,45.463c-0.088,0.571-0.206,1.277-0.303,1.838
				l-181.677,1027.725c-1.366,7.729-5.291,12.609-8.767,10.901C1723.435,2600.588,1721.731,2593.31,1722.875,2585.826z"/>
			
				<linearGradient id="SVGID_00000132810006427693814370000008463342935173188239_" gradientUnits="userSpaceOnUse" x1="2771.2764" y1="463.4571" x2="2341.2205" y2="990.7879">
				<stop  offset="0" style="stop-color:#E1473D"/>
				<stop  offset="1" style="stop-color:#E9605A"/>
			</linearGradient>
			<path style="fill:url(#SVGID_00000132810006427693814370000008463342935173188239_);" d="M1557.314,2594.063L1397.82,1556.7
				c-3.295-21.431-13.842-35.823-23.557-32.146c-9.715,3.678-14.92,24.032-11.625,45.463c0.088,0.571,0.205,1.277,0.303,1.838
				l181.677,1027.725c1.366,7.729,5.291,12.609,8.767,10.901C1556.754,2608.825,1558.458,2601.547,1557.314,2594.063z"/>
			<path style="opacity:0.61;fill:#FFFFFF;" d="M1881.225,1459.395c-4.05-6.513-13.424-8.947-20.937-5.437l-88.809,41.496
				l-30.827-87.837c-1.632-4.583-5.411-8.645-10.801-10.867c-10.215-4.211-22.434-0.445-27.29,8.411l-0.156,0.285l-73.036,133.169
				l-67.774-189.571l-0.112-0.313c-1.659-4.627-5.158-8.784-10.259-11.568c-11.365-6.204-26.378-3.246-33.534,6.606
				l-102.106,140.563c-4.153,5.761-2.724,13.48,3.598,17.739c6.748,4.546,16.47,3.489,21.713-2.36l89.902-100.285l80.942,180.336
				l0.062,0.138c1.298,2.886,3.739,5.403,7.13,6.991c7.595,3.557,17.078,1.103,21.182-5.481l78.114-125.347l29.399,63.4l0.259,0.563
				c0.213,0.455,0.455,0.904,0.731,1.346c4.046,6.508,13.412,8.94,20.919,5.432l105.417-49.257
				C1882.466,1474.034,1885.275,1465.908,1881.225,1459.395z"/>
			<path style="opacity:0.61;fill:#FFFFFF;" d="M2194.446,1893.867c-1.06,0-2.13-0.327-3.05-1.01
				c-2.27-1.683-2.743-4.89-1.057-7.163c27.487-37.026,52.703-75.326,74.943-113.836c1.413-2.453,4.547-3.29,6.993-1.873
				c2.45,1.413,3.287,4.547,1.873,6.993c-22.437,38.85-47.866,77.479-75.59,114.823
				C2197.556,1893.154,2196.009,1893.867,2194.446,1893.867z"/>
			<path style="opacity:0.61;fill:#FFFFFF;" d="M2325.658,1668.685c-0.68,0-1.37-0.137-2.037-0.423
				c-2.593-1.127-3.783-4.143-2.656-6.737c89.393-205.869,90.513-393.201,75.713-514.097
				c-16.053-131.103-53.763-214.569-54.14-215.395c-1.18-2.57-0.05-5.61,2.52-6.787c2.583-1.173,5.613-0.05,6.787,2.52
				c0.387,0.84,38.66,85.443,54.943,217.999c15.023,122.256,13.953,311.682-76.429,519.84
				C2329.521,1667.535,2327.635,1668.685,2325.658,1668.685z"/>
		</g>
		<g>
			<g>
				<path style="fill:#FFFFFF;" d="M1450.53,1046.329c-1.077,0-2.137-0.507-2.8-1.457c-2.593-3.707-5.23-7.373-7.917-10.997
					c-1.123-1.513-0.807-3.65,0.707-4.773c1.507-1.123,3.65-0.81,4.773,0.707c2.727,3.67,5.403,7.39,8.03,11.15
					c1.08,1.547,0.703,3.673-0.84,4.753C1451.887,1046.129,1451.203,1046.329,1450.53,1046.329z"/>
				<path style="fill:#FFFFFF;" d="M1068.745,1800.854c-1.847,0-3.367-1.473-3.413-3.327c-0.047-1.887,1.443-3.453,3.327-3.5
					c9.26-0.23,18.65-0.743,27.913-1.52c1.873-0.173,3.53,1.237,3.687,3.113c0.16,1.88-1.237,3.53-3.113,3.687
					c-9.397,0.79-18.923,1.31-28.313,1.547C1068.802,1800.854,1068.772,1800.854,1068.745,1800.854z M1023.029,1799.794
					c-0.08,0-0.163-0.003-0.247-0.01c-9.38-0.667-18.87-1.627-28.21-2.853c-1.87-0.243-3.187-1.957-2.94-3.827
					c0.243-1.87,1.92-3.21,3.827-2.94c9.207,1.207,18.563,2.153,27.81,2.813c1.88,0.133,3.297,1.767,3.16,3.647
					C1026.302,1798.421,1024.802,1799.794,1023.029,1799.794z M1142.195,1793.308c-1.62,0-3.057-1.153-3.357-2.803
					c-0.337-1.857,0.897-3.633,2.75-3.97c9.103-1.65,18.303-3.6,27.347-5.79c1.823-0.453,3.677,0.68,4.12,2.513
					c0.443,1.833-0.68,3.677-2.513,4.12c-9.17,2.223-18.5,4.2-27.733,5.877C1142.602,1793.291,1142.398,1793.308,1142.195,1793.308z
					 M1213.638,1774.631c-1.417,0-2.74-0.887-3.227-2.303c-0.613-1.78,0.333-3.723,2.117-4.337c8.787-3.023,17.58-6.343,26.143-9.86
					c1.737-0.71,3.74,0.113,4.453,1.86c0.717,1.743-0.117,3.737-1.86,4.453c-8.683,3.57-17.603,6.933-26.516,10
					C1214.381,1774.571,1214.005,1774.631,1213.638,1774.631z M1281.394,1745.335c-1.227,0-2.41-0.66-3.023-1.82
					c-0.88-1.667-0.24-3.733,1.427-4.613c8.21-4.33,16.393-8.96,24.32-13.76c1.607-0.967,3.71-0.46,4.687,1.153
					c0.977,1.61,0.46,3.71-1.153,4.687c-8.04,4.87-16.34,9.567-24.667,13.96C1282.474,1745.208,1281.931,1745.335,1281.394,1745.335
					z M1343.821,1705.938c-1.043,0-2.07-0.473-2.74-1.373c-1.127-1.51-0.813-3.65,0.697-4.777c7.45-5.553,14.81-11.387,21.88-17.333
					c1.443-1.223,3.597-1.027,4.807,0.413c1.217,1.44,1.03,3.593-0.413,4.807c-7.17,6.037-14.636,11.953-22.193,17.587
					C1345.244,1705.718,1344.531,1705.938,1343.821,1705.938z M1399.38,1657.412c-0.863,0-1.727-0.323-2.39-0.977
					c-1.347-1.32-1.367-3.48-0.047-4.827c6.493-6.623,12.873-13.523,18.963-20.51c1.243-1.42,3.4-1.563,4.817-0.33
					c1.42,1.24,1.57,3.393,0.33,4.817c-6.177,7.087-12.65,14.087-19.237,20.803
					C1401.15,1657.068,1400.264,1657.412,1399.38,1657.412z M1446.847,1600.905c-0.687,0-1.383-0.207-1.983-0.64
					c-1.533-1.097-1.887-3.23-0.787-4.76c5.413-7.557,10.663-15.353,15.61-23.18c1.007-1.59,3.117-2.067,4.71-1.063
					c1.593,1.01,2.07,3.117,1.063,4.71c-5.02,7.937-10.347,15.847-15.837,23.507
					C1448.957,1600.409,1447.91,1600.905,1446.847,1600.905z M1485.136,1537.802c-0.517,0-1.043-0.117-1.54-0.37
					c-1.68-0.85-2.353-2.903-1.5-4.587c4.19-8.273,8.193-16.787,11.896-25.297c0.75-1.727,2.757-2.523,4.493-1.767
					c1.727,0.753,2.52,2.763,1.767,4.493c-3.757,8.63-7.817,17.263-12.07,25.657
					C1487.583,1537.119,1486.383,1537.802,1485.136,1537.802z M1513.363,1469.569c-0.35,0-0.707-0.053-1.06-0.17
					c-1.79-0.583-2.77-2.51-2.183-4.303c2.873-8.807,5.53-17.83,7.89-26.823c0.477-1.823,2.347-2.91,4.167-2.433
					c1.823,0.477,2.913,2.343,2.433,4.167c-2.393,9.12-5.087,18.277-8.003,27.21
					C1516.136,1468.656,1514.8,1469.569,1513.363,1469.569z M1530.806,1397.813c-0.18,0-0.367-0.013-0.55-0.043
					c-1.863-0.303-3.123-2.057-2.823-3.917c1.487-9.15,2.723-18.477,3.67-27.726c0.193-1.877,1.887-3.18,3.743-3.05
					c1.877,0.193,3.24,1.87,3.05,3.743c-0.963,9.383-2.217,18.847-3.723,28.127
					C1533.9,1396.623,1532.449,1397.813,1530.806,1397.813z M1536.973,1324.207h-0.023c-1.887-0.013-3.403-1.553-3.39-3.437
					l0.01-2.847c0.003-8.31-0.22-16.757-0.667-25.106c-0.1-1.88,1.347-3.487,3.23-3.59c1.91-0.043,3.49,1.347,3.59,3.23
					c0.45,8.47,0.677,17.04,0.673,25.467l-0.01,2.893C1540.373,1322.694,1538.846,1324.207,1536.973,1324.207z M1531.696,1250.554
					c-1.663,0-3.117-1.213-3.373-2.907c-1.38-9.19-3.047-18.45-4.953-27.513c-0.387-1.847,0.793-3.657,2.637-4.043
					c1.84-0.393,3.657,0.793,4.043,2.637c1.933,9.197,3.627,18.583,5.027,27.907c0.28,1.863-1.007,3.603-2.87,3.883
					C1532.036,1250.541,1531.863,1250.554,1531.696,1250.554z M1515.196,1178.574c-1.457,0-2.803-0.937-3.26-2.4
					c-2.76-8.88-5.81-17.777-9.067-26.443c-0.66-1.763,0.233-3.733,1.997-4.397c1.763-0.65,3.73,0.23,4.397,1.997
					c3.3,8.79,6.393,17.81,9.193,26.817c0.56,1.8-0.447,3.713-2.247,4.273C1515.873,1178.525,1515.53,1178.574,1515.196,1178.574z
					 M1487.973,1109.948c-1.263,0-2.48-0.703-3.07-1.917c-4.063-8.32-8.44-16.643-13.003-24.737
					c-0.927-1.643-0.347-3.723,1.297-4.65c1.647-0.93,3.727-0.347,4.65,1.297c4.63,8.213,9.067,16.657,13.19,25.097
					c0.827,1.693,0.127,3.737-1.57,4.563C1488.986,1109.838,1488.476,1109.948,1487.973,1109.948z"/>
				<path style="fill:#FFFFFF;" d="M949.766,1788.798c-0.253,0-0.51-0.027-0.767-0.087c-4.47-1.027-8.92-2.123-13.347-3.277
					c-1.827-0.477-2.92-2.34-2.443-4.163c0.477-1.83,2.36-2.907,4.163-2.443c4.367,1.14,8.75,2.217,13.153,3.23
					c1.84,0.423,2.987,2.253,2.563,4.09C952.726,1787.728,951.32,1788.798,949.766,1788.798z"/>
			</g>
			<g>
				<path style="fill:#FFFFFF;" d="M648.891,1573.389c-1.143,0-2.263-0.573-2.907-1.62c-2.403-3.89-4.753-7.827-7.053-11.8
					c-0.947-1.633-0.387-3.72,1.243-4.663c1.637-0.95,3.723-0.39,4.663,1.243c2.267,3.92,4.583,7.797,6.953,11.633
					c0.99,1.603,0.493,3.707-1.11,4.697C650.125,1573.226,649.505,1573.389,648.891,1573.389z"/>
				<path style="fill:#FFFFFF;" d="M621.221,1521.696c-1.293,0-2.533-0.737-3.107-1.99c-3.863-8.427-7.527-17.067-10.893-25.687
					c-0.687-1.753,0.183-3.733,1.94-4.42c1.75-0.693,3.733,0.18,4.42,1.937c3.317,8.497,6.93,17.016,10.74,25.323
					c0.787,1.713,0.033,3.74-1.68,4.527C622.181,1521.596,621.695,1521.696,621.221,1521.696z M595.985,1453.553
					c-1.483,0-2.847-0.973-3.277-2.47c-2.57-8.947-4.907-18.036-6.94-27.023c-0.417-1.84,0.737-3.667,2.577-4.083
					c1.843-0.407,3.663,0.737,4.083,2.577c2.003,8.86,4.307,17.823,6.84,26.643c0.52,1.813-0.527,3.703-2.337,4.223
					C596.615,1453.51,596.298,1453.553,595.985,1453.553z M581.202,1382.403c-1.69,0-3.157-1.253-3.38-2.973
					c-1.197-9.177-2.137-18.517-2.797-27.76c-0.137-1.88,1.28-3.513,3.16-3.647c1.877-0.203,3.513,1.28,3.647,3.16
					c0.653,9.11,1.58,18.32,2.757,27.367c0.243,1.87-1.073,3.583-2.943,3.823C581.495,1382.393,581.348,1382.403,581.202,1382.403z
					 M577.352,1309.814c-0.027,0-0.053,0-0.08,0c-1.883-0.043-3.377-1.61-3.333-3.493c0.217-9.24,0.707-18.623,1.46-27.886
					c0.157-1.877,1.823-3.24,3.68-3.127c1.88,0.153,3.277,1.8,3.127,3.68c-0.743,9.133-1.227,18.383-1.44,27.493
					C580.722,1308.337,579.202,1309.814,577.352,1309.814z M584.588,1237.484c-0.197,0-0.4-0.017-0.6-0.053
					c-1.857-0.33-3.093-2.1-2.763-3.957c1.613-9.08,3.523-18.273,5.677-27.33c0.44-1.833,2.283-2.953,4.11-2.53
					c1.833,0.437,2.967,2.277,2.53,4.11c-2.123,8.927-4.003,17.993-5.597,26.943
					C587.652,1236.321,586.212,1237.484,584.588,1237.484z M602.698,1167.101c-0.363,0-0.733-0.057-1.1-0.183
					c-1.783-0.607-2.74-2.543-2.13-4.33c2.99-8.8,6.267-17.6,9.737-26.15c0.71-1.75,2.707-2.587,4.447-1.88
					c1.747,0.71,2.587,2.7,1.88,4.447c-3.42,8.43-6.65,17.103-9.603,25.783C605.448,1166.208,604.118,1167.101,602.698,1167.101z
					 M631.201,1100.265c-0.53,0-1.067-0.123-1.57-0.383c-1.673-0.87-2.323-2.93-1.457-4.603c4.257-8.203,8.817-16.407,13.547-24.383
					c0.967-1.62,3.057-2.153,4.68-1.193c1.62,0.963,2.153,3.057,1.193,4.68c-4.667,7.863-9.163,15.953-13.36,24.043
					C633.628,1099.595,632.435,1100.265,631.201,1100.265z M669.414,1038.479c-0.697,0-1.4-0.213-2.007-0.653
					c-1.523-1.11-1.86-3.247-0.75-4.77c5.447-7.48,11.183-14.903,17.053-22.063c1.19-1.457,3.347-1.677,4.803-0.477
					c1.457,1.193,1.67,3.347,0.477,4.803c-5.787,7.06-11.443,14.38-16.813,21.757
					C671.508,1037.992,670.468,1038.479,669.414,1038.479z M716.471,983.156c-0.867,0-1.737-0.33-2.403-0.987
					c-1.337-1.327-1.35-3.49-0.023-4.83c6.5-6.56,13.287-13.03,20.177-19.227c1.4-1.263,3.56-1.153,4.82,0.253
					c1.263,1.403,1.147,3.56-0.253,4.82c-6.793,6.113-13.487,12.49-19.89,18.96C718.227,982.819,717.351,983.156,716.471,983.156z
					 M771.337,935.599c-1.043,0-2.077-0.477-2.747-1.38c-1.12-1.513-0.803-3.653,0.71-4.777c7.437-5.51,15.123-10.873,22.85-15.933
					c1.577-1.033,3.69-0.587,4.727,0.987c1.03,1.577,0.59,3.693-0.987,4.727c-7.617,4.987-15.193,10.27-22.523,15.706
					C772.757,935.379,772.044,935.599,771.337,935.599z M832.79,896.929c-1.227,0-2.41-0.66-3.023-1.82
					c-0.88-1.67-0.24-3.733,1.427-4.613c8.207-4.327,16.63-8.46,25.04-12.29c1.707-0.787,3.733-0.023,4.52,1.693
					c0.78,1.713,0.023,3.74-1.693,4.52c-8.287,3.773-16.59,7.85-24.68,12.117C833.87,896.803,833.327,896.929,832.79,896.929z
					 M899.423,868.006c-1.413,0-2.737-0.883-3.223-2.293c-0.62-1.783,0.323-3.727,2.103-4.343
					c7.703-2.673,15.637-5.203,23.577-7.523l3.033-0.873c1.793-0.523,3.7,0.537,4.213,2.353c0.513,1.813-0.54,3.7-2.353,4.213
					l-2.98,0.86c-7.833,2.287-15.657,4.783-23.25,7.417C900.173,867.946,899.793,868.006,899.423,868.006z M969.653,849.363
					c-1.613,0-3.047-1.147-3.353-2.787c-0.343-1.853,0.877-3.637,2.73-3.983c9.103-1.697,18.376-3.153,27.563-4.327
					c1.887-0.223,3.583,1.087,3.82,2.953c0.237,1.87-1.083,3.58-2.953,3.82c-9.06,1.153-18.203,2.59-27.177,4.267
					C970.069,849.343,969.859,849.363,969.653,849.363z M1141.885,848.803c-0.2,0-0.403-0.017-0.607-0.053
					c-9.01-1.623-18.163-3-27.203-4.09c-1.87-0.227-3.203-1.927-2.98-3.8c0.227-1.873,1.903-3.19,3.8-2.98
					c9.17,1.11,18.453,2.503,27.59,4.15c1.857,0.333,3.09,2.11,2.757,3.963C1144.945,847.646,1143.505,848.803,1141.885,848.803z
					 M1041.892,841.49c-1.833,0-3.35-1.457-3.407-3.303c-0.063-1.883,1.417-3.46,3.3-3.52c9.307-0.307,18.663-0.333,27.9-0.093
					c1.883,0.05,3.37,1.617,3.323,3.503c-0.05,1.853-1.567,3.323-3.41,3.323c-0.033,0-0.063,0-0.093,0
					c-9.1-0.24-18.323-0.207-27.5,0.087C1041.969,841.49,1041.932,841.49,1041.892,841.49z"/>
				<path style="fill:#FFFFFF;" d="M1199.078,862.796c-0.333,0-0.673-0.05-1.01-0.153c-4.31-1.337-8.643-2.617-12.997-3.837
					c-1.817-0.507-2.877-2.39-2.367-4.207c0.507-1.817,2.413-2.873,4.207-2.367c4.413,1.233,8.807,2.533,13.177,3.89
					c1.803,0.56,2.81,2.47,2.25,4.27C1201.885,861.86,1200.535,862.796,1199.078,862.796z"/>
			</g>
			<g>
				
					<linearGradient id="SVGID_00000137119374708465426420000017219555689425544887_" gradientUnits="userSpaceOnUse" x1="689.9957" y1="1321.3666" x2="1426.2214" y2="1321.3666">
					<stop  offset="0" style="stop-color:#4F52FF"/>
					<stop  offset="1" style="stop-color:#4042E2"/>
				</linearGradient>
				<path style="fill:url(#SVGID_00000137119374708465426420000017219555689425544887_);" d="M1209.668,982.208
					c-2.115-1.25-4.791-1.02-6.661,0.571l-53.371,45.422c-31.232-9.784-64.25-14.658-97.923-13.927l-38.606-58.436
					c-1.354-2.051-3.859-3.014-6.239-2.403l-81.412,20.94c-2.38,0.613-4.108,2.667-4.306,5.114l-5.618,69.812
					c-29.846,15.61-56.414,35.808-79.049,59.448l-68.664-14.031c-2.407-0.492-4.86,0.597-6.11,2.712l-42.76,72.375
					c-1.251,2.117-1.02,4.791,0.572,6.661l45.421,53.371c-9.784,31.232-14.656,64.25-13.926,97.923l-58.437,38.607
					c-2.05,1.354-3.015,3.858-2.403,6.238l20.942,81.414c0.612,2.379,2.666,4.108,5.115,4.305l69.812,5.617
					c15.609,29.847,35.807,56.414,59.447,79.049l-14.032,68.665c-0.491,2.406,0.599,4.86,2.713,6.109l72.375,42.76
					c2.116,1.251,4.791,1.02,6.662-0.573l53.37-45.421c31.232,9.785,64.249,14.657,97.923,13.928l38.606,58.437
					c1.354,2.049,3.859,3.014,6.237,2.402l81.415-20.941c2.378-0.611,4.107-2.667,4.304-5.115l5.617-69.812
					c29.847-15.608,56.415-35.809,79.05-59.449l68.663,14.032c2.407,0.494,4.861-0.597,6.111-2.713l42.76-72.375
					c1.249-2.115,1.02-4.79-0.572-6.661l-45.421-53.371c9.784-31.232,14.656-64.25,13.926-97.923l58.438-38.607
					c2.048-1.352,3.014-3.859,2.401-6.237l-20.941-81.413c-0.612-2.379-2.666-4.108-5.114-4.306l-69.812-5.617
					c-15.609-29.846-35.81-56.413-59.448-79.048l14.031-68.664c0.492-2.407-0.597-4.86-2.712-6.111L1209.668,982.208z"/>
				<path style="fill:#91B3FA;" d="M1058.219,1401.167c-7.567,0-15.177-1.087-22.64-3.283c-20.436-6.02-37.31-19.637-47.506-38.343
					c-10.197-18.71-12.497-40.266-6.48-60.706c6.02-20.436,19.637-37.306,38.343-47.503l0,0c18.707-10.197,40.26-12.493,60.703-6.48
					c20.437,6.02,37.31,19.636,47.506,38.343c10.197,18.707,12.497,40.263,6.48,60.703c-6.02,20.437-19.637,37.31-38.343,47.506
					C1084.405,1397.877,1071.379,1401.167,1058.219,1401.167z M1057.992,1251.854c-11.233,0-22.616,2.723-33.156,8.47l0,0
					c-16.307,8.887-28.173,23.59-33.42,41.403c-5.243,17.813-3.24,36.607,5.65,52.913c18.343,33.66,60.656,46.126,94.316,27.77
					c33.66-18.347,46.116-60.656,27.77-94.316C1106.552,1264.974,1082.635,1251.854,1057.992,1251.854z M1022.386,1255.827h0.033
					H1022.386z"/>
				<path style="fill:#91B3FA;" d="M1057.359,1530.963c-92.623,0-177.319-62.43-201.435-156.179c-4.447-17.3-6.577-34.66-6.58-51.75
					c-0.01-92.633,62.423-177.349,156.179-201.465c5.877-1.51,11.807-2.763,17.773-3.76c0.137-0.023,0.277-0.047,0.417-0.07h0.003
					c0.083-0.013,0.163-0.027,0.247-0.04l0.017-0.003c6.67-1.09,13.377-1.857,20.083-2.293c1.753-0.117,3.51-0.207,5.267-0.277
					l0.4,10.233c-13.957,0.55-27.973,2.61-41.656,6.13h0.003c-49.776,12.8-91.799,43.723-118.779,87.276
					c-0.743,1.203-1.477,2.417-2.197,3.637c-18.233,30.86-27.57,65.286-27.573,100.216c0,16.533,2.087,33.18,6.317,49.613
					c27.156,105.589,135.166,169.389,240.742,142.233c89.14-22.927,148.502-103.473,148.489-191.542
					c0-16.25-2.023-32.753-6.257-49.2c-8.93-34.716-27.056-66.303-52.426-91.343l7.193-7.287
					c26.69,26.343,45.76,59.566,55.153,96.076c4.447,17.3,6.577,34.66,6.58,51.75c0.01,92.633-62.423,177.349-156.179,201.465
					C1091.832,1528.833,1074.459,1530.963,1057.359,1530.963z"/>
			</g>
		</g>
		<g>
			<g>
				<path style="fill:#BDD0FB;" d="M1724.145,741.284c-1.113,0-2.203-0.543-2.86-1.543c-2.437-3.727-5.023-7.437-7.69-11.03
					c-1.123-1.513-0.807-3.65,0.707-4.773c1.507-1.127,3.65-0.81,4.773,0.707c2.747,3.7,5.413,7.52,7.923,11.357
					c1.033,1.577,0.59,3.693-0.987,4.727C1725.435,741.104,1724.785,741.284,1724.145,741.284z"/>
				<path style="fill:#BDD0FB;" d="M1528.903,1102.422c-0.03,0-0.06,0-0.087,0l-0.957-0.003c-1.887-0.02-3.397-1.567-3.377-3.45
					c0.02-1.887,1.463-3.42,3.45-3.377l0.883,0.003c0.027,0,0.057,0,0.083,0c8.61,0,17.327-0.5,25.91-1.483
					c1.88-0.243,3.567,1.127,3.78,3c0.217,1.873-1.127,3.567-3,3.78C1546.749,1101.908,1537.77,1102.422,1528.903,1102.422z
					 M1598.629,1091.695c-1.453,0-2.803-0.937-3.257-2.397c-0.563-1.8,0.44-3.713,2.24-4.273c8.557-2.673,17.036-5.877,25.203-9.517
					c1.717-0.78,3.74,0.007,4.507,1.727c0.77,1.72-0.003,3.74-1.727,4.507c-8.407,3.75-17.14,7.047-25.95,9.797
					C1599.309,1091.645,1598.966,1091.695,1598.629,1091.695z M1662.832,1060.172c-1.077,0-2.133-0.507-2.8-1.453
					c-1.08-1.547-0.707-3.673,0.837-4.757c7.317-5.123,14.413-10.747,21.097-16.717c1.4-1.25,3.56-1.137,4.82,0.273
					c1.253,1.407,1.133,3.563-0.273,4.82c-6.88,6.147-14.19,11.937-21.723,17.217
					C1664.192,1059.972,1663.509,1060.172,1662.832,1060.172z M1714.365,1010.619c-0.72,0-1.447-0.227-2.063-0.697
					c-1.5-1.143-1.79-3.287-0.65-4.783c5.43-7.127,10.493-14.643,15.05-22.346c0.963-1.62,3.053-2.157,4.677-1.197
					c1.62,0.96,2.157,3.053,1.197,4.677c-4.69,7.927-9.903,15.667-15.49,23C1716.412,1010.156,1715.395,1010.619,1714.365,1010.619z
					 M1748.535,947.779c-0.383,0-0.773-0.063-1.153-0.2c-1.773-0.64-2.697-2.593-2.06-4.367c3.033-8.44,5.593-17.137,7.61-25.85
					c0.43-1.837,2.277-2.973,4.097-2.557c1.837,0.427,2.98,2.26,2.557,4.097c-2.08,8.973-4.717,17.927-7.837,26.617
					C1751.248,946.912,1749.935,947.779,1748.535,947.779z M1762.101,877.536c-0.043,0-0.083,0-0.127-0.003
					c-1.883-0.067-3.357-1.65-3.287-3.533c0.097-2.733,0.147-5.47,0.147-8.217c-0.003-6.25-0.263-12.557-0.773-18.74
					c-0.153-1.88,1.243-3.527,3.123-3.683c1.903-0.117,3.53,1.247,3.683,3.123c0.523,6.37,0.79,12.86,0.793,19.297
					c0,2.83-0.05,5.653-0.153,8.467C1765.442,876.086,1763.928,877.536,1762.101,877.536z M1753.628,806.477
					c-1.49,0-2.86-0.983-3.283-2.49l-0.753-2.64c-2.257-7.737-4.937-15.43-7.973-22.867c-0.713-1.747,0.123-3.737,1.87-4.45
					c1.74-0.72,3.737,0.12,4.45,1.87c3.127,7.653,5.887,15.573,8.207,23.533l0.773,2.707c0.51,1.817-0.55,3.7-2.363,4.21
					C1754.245,806.437,1753.935,806.477,1753.628,806.477z"/>
				<path style="fill:#BDD0FB;" d="M1483.583,1097.962c-0.22,0-0.447-0.02-0.673-0.067c-4.547-0.91-9.083-1.95-13.487-3.097
					c-1.823-0.473-2.917-2.34-2.443-4.163c0.473-1.827,2.333-2.907,4.163-2.443c4.277,1.113,8.687,2.127,13.107,3.01
					c1.847,0.37,3.047,2.167,2.677,4.017C1486.603,1096.842,1485.176,1097.962,1483.583,1097.962z"/>
			</g>
			<g>
				<path style="fill:#BDD0FB;" d="M1330.434,991.749c-1.143,0-2.263-0.573-2.907-1.62c-2.4-3.883-4.73-7.92-6.923-11.993
					c-0.897-1.66-0.277-3.73,1.383-4.623c1.67-0.903,3.73-0.273,4.623,1.383c2.133,3.957,4.397,7.877,6.723,11.647
					c0.99,1.603,0.493,3.707-1.11,4.697C1331.664,991.586,1331.044,991.749,1330.434,991.749z"/>
				<path style="fill:#BDD0FB;" d="M1306.588,939.699c-1.447,0-2.793-0.927-3.253-2.38c-0.57-1.79-1.117-3.593-1.643-5.41
					c-2.013-6.907-3.733-13.983-5.117-21.03c-0.363-1.85,0.843-3.643,2.693-4.007c1.83-0.367,3.643,0.843,4.007,2.693
					c1.344,6.847,3.017,13.723,4.97,20.437c0.513,1.763,1.047,3.513,1.597,5.25c0.57,1.797-0.423,3.717-2.22,4.287
					C1307.277,939.649,1306.927,939.699,1306.588,939.699z M1295.591,870.18c-1.873,0-3.397-1.51-3.413-3.383l-0.003-1.233
					c0-8.653,0.487-17.417,1.447-26.047c0.21-1.877,1.95-3.183,3.77-3.017c1.873,0.21,3.224,1.897,3.017,3.77
					c-0.933,8.383-1.407,16.893-1.407,25.293l0.003,1.173c0.017,1.887-1.5,3.427-3.383,3.443H1295.591z M1305.917,800.55
					c-0.333,0-0.67-0.047-1.007-0.15c-1.8-0.557-2.81-2.467-2.257-4.27c2.673-8.67,5.88-17.276,9.53-25.573
					c0.757-1.727,2.763-2.51,4.497-1.75c1.727,0.757,2.51,2.773,1.75,4.497c-3.543,8.06-6.657,16.417-9.25,24.84
					C1308.727,799.61,1307.377,800.55,1305.917,800.55z M1336.514,737.174c-0.663,0-1.337-0.193-1.927-0.597
					c-1.553-1.067-1.95-3.19-0.887-4.747c5.133-7.493,10.743-14.757,16.68-21.587c1.243-1.427,3.397-1.567,4.817-0.337
					c1.423,1.237,1.573,3.393,0.337,4.817c-5.767,6.63-11.217,13.687-16.2,20.967
					C1338.674,736.654,1337.604,737.174,1336.514,737.174z M1384.557,685.771c-1.01,0-2.01-0.447-2.683-1.3
					c-1.167-1.48-0.913-3.627,0.567-4.793c7.117-5.61,14.646-10.867,22.383-15.62c1.603-0.993,3.707-0.49,4.693,1.12
					c0.99,1.603,0.487,3.707-1.12,4.693c-7.51,4.62-14.82,9.72-21.73,15.167C1386.04,685.531,1385.297,685.771,1384.557,685.771z
					 M1445.79,651.114c-1.377,0-2.673-0.837-3.19-2.2c-0.67-1.763,0.217-3.733,1.977-4.403c5.917-2.25,12.007-4.29,18.103-6.063
					c2.633-0.767,5.27-1.487,7.91-2.16c1.813-0.477,3.683,0.637,4.15,2.463c0.467,1.827-0.637,3.687-2.463,4.15
					c-2.567,0.653-5.13,1.353-7.69,2.1c-5.92,1.727-11.837,3.707-17.583,5.89C1446.603,651.044,1446.193,651.114,1445.79,651.114z
					 M1514.573,636.208c-1.787,0-3.29-1.39-3.403-3.2c-0.117-1.88,1.31-3.503,3.193-3.62c9.017-0.567,18.147-0.607,27.293-0.123
					c1.883,0.1,3.33,1.71,3.23,3.59c-0.097,1.887-1.68,3.367-3.59,3.23c-8.89-0.473-17.747-0.43-26.507,0.117
					C1514.716,636.204,1514.646,636.208,1514.573,636.208z"/>
				<path style="fill:#BDD0FB;" d="M1597.949,646.237c-0.337,0-0.677-0.05-1.013-0.153c-4.257-1.327-8.613-2.54-12.947-3.613
					c-1.83-0.453-2.947-2.303-2.493-4.133c0.45-1.833,2.303-2.937,4.133-2.493c4.463,1.103,8.95,2.357,13.333,3.72
					c1.8,0.56,2.807,2.473,2.247,4.273C1600.752,645.301,1599.406,646.237,1597.949,646.237z"/>
			</g>
			<g>
				
					<linearGradient id="SVGID_00000003795107858847438580000014866261838619914916_" gradientUnits="userSpaceOnUse" x1="1350.4182" y1="867.4532" x2="1708.3949" y2="867.4532">
					<stop  offset="0" style="stop-color:#4F52FF"/>
					<stop  offset="1" style="stop-color:#4042E2"/>
				</linearGradient>
				<path style="fill:url(#SVGID_00000003795107858847438580000014866261838619914916_);" d="M1603.1,702.543
					c-1.028-0.607-2.329-0.496-3.239,0.278l-25.95,22.086c-15.186-4.757-31.24-7.127-47.613-6.772l-18.772-28.413
					c-0.658-0.997-1.876-1.466-3.033-1.168l-39.585,10.182c-1.157,0.298-1.998,1.297-2.094,2.487l-2.732,33.945
					c-14.512,7.59-27.43,17.411-38.436,28.905l-33.386-6.822c-1.17-0.239-2.363,0.29-2.97,1.319l-20.791,35.191
					c-0.608,1.029-0.496,2.329,0.278,3.239l22.085,25.95c-4.757,15.186-7.126,31.24-6.771,47.613l-28.414,18.772
					c-0.997,0.658-1.466,1.876-1.168,3.033l10.183,39.586c0.297,1.157,1.296,1.997,2.487,2.093l33.945,2.731
					c7.59,14.512,17.411,27.43,28.906,38.436l-6.823,33.387c-0.238,1.17,0.291,2.363,1.319,2.971l35.191,20.791
					c1.029,0.608,2.329,0.496,3.239-0.279l25.95-22.085c15.186,4.757,31.241,7.127,47.613,6.772l18.772,28.414
					c0.658,0.996,1.876,1.465,3.033,1.168l39.587-10.182c1.157-0.297,1.997-1.297,2.093-2.487l2.732-33.945
					c14.512-7.589,27.431-17.411,38.436-28.906l33.386,6.823c1.17,0.24,2.364-0.291,2.971-1.319l20.791-35.191
					c0.607-1.028,0.496-2.329-0.278-3.239l-22.085-25.95c4.757-15.186,7.126-31.24,6.771-47.613l28.415-18.772
					c0.996-0.658,1.465-1.876,1.167-3.033l-10.182-39.585c-0.297-1.157-1.296-1.997-2.486-2.094l-33.945-2.731
					c-7.59-14.513-17.411-27.43-28.906-38.436l6.822-33.386c0.24-1.17-0.29-2.363-1.319-2.971L1603.1,702.543z"/>
				<path style="fill:#BDD0FB;" d="M1529.463,908.886c-3.93,0-7.88-0.567-11.753-1.707c-10.61-3.123-19.37-10.193-24.667-19.907
					c-5.293-9.713-6.487-20.907-3.363-31.517c3.123-10.61,10.193-19.37,19.907-24.667c9.713-5.293,20.906-6.483,31.516-3.363
					c10.613,3.123,19.373,10.193,24.667,19.907c5.293,9.713,6.49,20.906,3.363,31.516c-3.123,10.613-10.193,19.373-19.906,24.667
					C1543.059,907.176,1536.296,908.886,1529.463,908.886z M1529.363,836.266c-5.143,0-10.233,1.287-14.876,3.817
					c-7.31,3.983-12.633,10.577-14.983,18.567c-2.353,7.987-1.453,16.41,2.533,23.723c3.983,7.31,10.577,12.633,18.567,14.983
					c7.98,2.357,16.41,1.457,23.723-2.533c7.31-3.983,12.633-10.577,14.983-18.563c2.353-7.99,1.453-16.413-2.533-23.727
					c-3.983-7.31-10.577-12.633-18.563-14.983C1535.296,836.69,1532.323,836.266,1529.363,836.266z"/>
				<path style="fill:#BDD0FB;" d="M1528.849,972.026c-18.33,0-36.4-4.897-52.596-14.467c-23.86-14.097-40.8-36.64-47.703-63.476
					c-2.217-8.623-3.313-17.36-3.313-26.036c0.003-18.327,4.9-36.39,14.467-52.583c14.097-23.86,36.64-40.8,63.48-47.706
					c6.77-1.743,13.707-2.803,20.64-3.157c0.16-0.01,0.32-0.017,0.48-0.023c0.243-0.013,0.487-0.023,0.73-0.033l0.4,10.233
					c-6.61,0.26-13.237,1.233-19.697,2.897c-48.266,12.417-78.073,60.546-68.413,108.843c0.333,1.673,0.717,3.343,1.147,5.013
					c6.22,24.19,21.487,44.51,42.993,57.213c21.5,12.703,46.666,16.28,70.856,10.053c42.16-10.843,70.233-48.933,70.229-90.586
					c-0.003-7.683-0.957-15.49-2.96-23.266c-4.227-16.42-12.8-31.36-24.793-43.2l7.193-7.287
					c13.313,13.143,22.83,29.72,27.52,47.933c2.217,8.63,3.28,17.29,3.28,25.817c0.003,46.213-31.143,88.476-77.916,100.509
					C1546.253,970.929,1537.523,972.026,1528.849,972.026z"/>
			</g>
		</g>
		<g>
			<g>
				<path style="fill:#FFFFFF;" d="M2363.511,794.997c-1.09,0-2.163-0.52-2.823-1.49c-2.543-3.73-5.18-7.433-7.833-11.01
					c-1.123-1.513-0.807-3.65,0.707-4.773c1.507-1.123,3.646-0.807,4.773,0.707c2.707,3.647,5.397,7.423,7.993,11.23
					c1.063,1.557,0.66,3.68-0.897,4.743C2364.845,794.803,2364.175,794.997,2363.511,794.997z"/>
				<path style="fill:#FFFFFF;" d="M2071.84,1341.154c0,0-0.02,0-0.03,0c-9.137-0.08-18.4-0.527-27.533-1.33
					c-1.877-0.163-3.267-1.82-3.1-3.7c0.167-1.877,1.793-3.247,3.7-3.1c8.953,0.787,18.036,1.227,26.993,1.303
					c1.883,0.017,3.4,1.557,3.383,3.443C2075.236,1339.644,2073.71,1341.154,2071.84,1341.154z M2116.106,1338.714
					c-1.707,0-3.18-1.273-3.387-3.007c-0.223-1.873,1.113-3.573,2.983-3.797c8.887-1.06,17.87-2.493,26.697-4.253
					c1.847-0.38,3.643,0.833,4.013,2.68c0.37,1.847-0.83,3.647-2.68,4.013c-9,1.797-18.156,3.257-27.217,4.34
					C2116.376,1338.707,2116.24,1338.714,2116.106,1338.714z M2185.916,1323.02c-1.43,0-2.76-0.903-3.237-2.333
					c-0.597-1.787,0.367-3.72,2.156-4.317c8.507-2.84,17.01-6.05,25.273-9.543c1.737-0.733,3.74,0.077,4.473,1.813
					c0.733,1.737-0.077,3.74-1.813,4.473c-8.427,3.563-17.096,6.837-25.773,9.73
					C2186.639,1322.964,2186.272,1323.02,2185.916,1323.02z M2251.085,1293.567c-1.177,0-2.32-0.607-2.953-1.697
					c-0.947-1.627-0.397-3.717,1.233-4.667c7.75-4.513,15.417-9.393,22.79-14.507c1.55-1.073,3.673-0.687,4.75,0.863
					c1.073,1.547,0.687,3.673-0.863,4.75c-7.517,5.21-15.337,10.187-23.243,14.793
					C2252.259,1293.417,2251.669,1293.567,2251.085,1293.567z M2308.818,1251.404c-0.93,0-1.86-0.38-2.533-1.127
					c-1.263-1.4-1.153-3.56,0.247-4.82c6.657-6.003,13.163-12.353,19.34-18.873c1.297-1.373,3.457-1.43,4.823-0.13
					c1.37,1.297,1.427,3.457,0.13,4.823c-6.297,6.65-12.933,13.127-19.72,19.247
					C2310.452,1251.114,2309.635,1251.404,2308.818,1251.404z M2356.721,1198.304c-0.7,0-1.403-0.213-2.013-0.66
					c-1.52-1.113-1.85-3.247-0.737-4.77c5.29-7.23,10.37-14.773,15.097-22.413c0.993-1.603,3.097-2.097,4.7-1.107
					c1.603,0.993,2.097,3.097,1.107,4.7c-4.82,7.79-10,15.477-15.397,22.853C2358.811,1197.821,2357.775,1198.304,2356.721,1198.304
					z M2392.858,1136.575c-0.473,0-0.953-0.097-1.413-0.307c-1.713-0.783-2.47-2.807-1.69-4.523
					c3.717-8.147,7.163-16.56,10.243-25.01c0.643-1.77,2.604-2.68,4.377-2.037c1.77,0.647,2.683,2.603,2.037,4.377
					c-3.14,8.613-6.653,17.193-10.443,25.503C2395.395,1135.835,2394.155,1136.575,2392.858,1136.575z M2415.731,1068.788
					c-0.25,0-0.503-0.027-0.757-0.083c-1.84-0.417-2.993-2.247-2.577-4.083c1.983-8.743,3.643-17.683,4.937-26.57
					c0.27-1.867,1.983-3.203,3.867-2.887c1.866,0.27,3.16,2.003,2.886,3.867c-1.317,9.067-3.01,18.183-5.03,27.097
					C2418.698,1067.715,2417.291,1068.788,2415.731,1068.788z M2424.271,997.749c-0.017,0-0.037,0-0.037,0
					c-1.903-0.03-3.406-1.583-3.376-3.467c0.03-1.87,0.046-3.737,0.046-5.61c0.003-7.107-0.22-14.317-0.667-21.43
					c-0.117-1.88,1.313-3.503,3.193-3.62c1.827-0.127,3.503,1.31,3.62,3.193c0.453,7.257,0.683,14.61,0.68,21.857
					c0,1.907-0.017,3.813-0.047,5.717C2427.654,996.255,2426.131,997.749,2424.271,997.749z M2418.058,926.463
					c-1.603,0-3.033-1.133-3.35-2.77c-1.697-8.823-3.757-17.683-6.126-26.33c-0.497-1.817,0.573-3.693,2.393-4.193
					c1.803-0.477,3.693,0.573,4.193,2.393c2.413,8.813,4.513,17.843,6.247,26.843c0.354,1.85-0.856,3.64-2.71,3.997
					C2418.488,926.443,2418.271,926.463,2418.058,926.463z M2397.525,857.926c-1.337,0-2.61-0.793-3.154-2.107
					c-3.437-8.293-7.24-16.553-11.31-24.55c-0.853-1.68-0.183-3.733,1.497-4.59c1.67-0.85,3.733-0.187,4.59,1.497
					c4.147,8.153,8.027,16.573,11.53,25.03c0.72,1.743-0.107,3.74-1.847,4.46C2398.405,857.843,2397.961,857.926,2397.525,857.926z"
					/>
				<path style="fill:#FFFFFF;" d="M2000.58,1333.107c-0.243,0-0.487-0.027-0.733-0.08c-4.47-0.977-8.977-2.057-13.4-3.21
					c-1.823-0.477-2.92-2.34-2.443-4.163c0.477-1.827,2.36-2.907,4.163-2.443c4.337,1.13,8.757,2.19,13.14,3.15
					c1.84,0.403,3.007,2.223,2.603,4.063C2003.563,1332.02,2002.15,1333.107,2000.58,1333.107z"/>
			</g>
			<g>
				<path style="fill:#FFFFFF;" d="M1777.985,1175.521c-1.147,0-2.263-0.577-2.91-1.62c-2.44-3.96-4.797-7.953-7.007-11.87
					c-0.927-1.643-0.347-3.723,1.297-4.65c1.643-0.933,3.727-0.347,4.65,1.297c2.167,3.84,4.477,7.757,6.873,11.637
					c0.987,1.607,0.49,3.71-1.113,4.7C1779.215,1175.358,1778.595,1175.521,1777.985,1175.521z"/>
				<path style="fill:#FFFFFF;" d="M1752.035,1124.501c-1.343,0-2.62-0.8-3.16-2.12c-3.397-8.31-6.523-16.88-9.297-25.476
					c-0.577-1.793,0.407-3.717,2.203-4.297c1.8-0.567,3.72,0.41,4.297,2.203c2.717,8.43,5.787,16.837,9.117,24.983
					c0.713,1.747-0.123,3.74-1.867,4.453C1752.905,1124.422,1752.465,1124.501,1752.035,1124.501z M1732.008,1057.009
					c-1.607,0-3.037-1.137-3.35-2.773c-1.687-8.837-3.053-17.857-4.063-26.81c-0.21-1.873,1.137-3.563,3.01-3.777
					c1.887-0.22,3.563,1.137,3.777,3.01c0.99,8.783,2.33,17.63,3.983,26.297c0.353,1.853-0.863,3.64-2.713,3.993
					C1732.435,1056.989,1732.222,1057.009,1732.008,1057.009z M1725.855,986.866h-0.047c-1.887-0.027-3.393-1.577-3.367-3.46
					c0.127-9.003,0.61-18.116,1.433-27.086c0.173-1.873,1.813-3.24,3.713-3.087c1.877,0.173,3.257,1.837,3.087,3.713
					c-0.81,8.793-1.283,17.73-1.407,26.553C1729.242,985.369,1727.718,986.866,1725.855,986.866z M1733.995,916.939
					c-0.243,0-0.49-0.027-0.74-0.08c-1.84-0.407-3.003-2.227-2.597-4.07c1.937-8.773,4.247-17.6,6.863-26.233
					c0.55-1.8,2.443-2.827,4.257-2.277c1.803,0.547,2.823,2.453,2.277,4.257c-2.567,8.467-4.83,17.12-6.73,25.727
					C1736.972,915.856,1735.562,916.939,1733.995,916.939z M1756.015,850.08c-0.463,0-0.933-0.093-1.383-0.297
					c-1.723-0.767-2.497-2.783-1.73-4.503c3.67-8.247,7.697-16.433,11.967-24.333c0.897-1.66,2.963-2.273,4.627-1.38
					c1.657,0.897,2.277,2.97,1.38,4.627c-4.19,7.747-8.137,15.777-11.74,23.86C1758.572,849.326,1757.325,850.08,1756.015,850.08z
					 M1790.938,788.97c-0.687,0-1.377-0.207-1.98-0.633c-1.533-1.097-1.89-3.227-0.797-4.763c5.24-7.34,10.817-14.56,16.58-21.453
					c1.21-1.443,3.357-1.64,4.81-0.43c1.447,1.21,1.637,3.363,0.43,4.81c-5.653,6.76-11.123,13.837-16.26,21.04
					C1793.055,788.473,1792.005,788.97,1790.938,788.97z M1837.354,736.08c-0.913,0-1.827-0.367-2.5-1.087
					c-1.283-1.38-1.207-3.54,0.173-4.827c6.59-6.13,13.503-12.083,20.547-17.69c1.483-1.18,3.623-0.93,4.797,0.543
					c1.173,1.477,0.93,3.623-0.543,4.797c-6.907,5.5-13.687,11.337-20.146,17.35C1839.021,735.777,1838.188,736.08,1837.354,736.08z
					 M1893.474,693.607c-1.153,0-2.277-0.583-2.92-1.64c-0.98-1.61-0.467-3.71,1.143-4.69c7.703-4.683,15.677-9.117,23.7-13.177
					c1.677-0.86,3.73-0.177,4.587,1.507c0.85,1.68,0.177,3.733-1.507,4.587c-7.863,3.98-15.68,8.323-23.233,12.917
					C1894.691,693.447,1894.077,693.607,1893.474,693.607z M1956.997,663.327c-1.4,0-2.713-0.867-3.213-2.263
					c-0.637-1.773,0.287-3.727,2.063-4.363c6.723-2.407,13.637-4.653,20.553-6.67c1.77-0.517,3.537-1.017,5.303-1.503
					c1.81-0.487,3.693,0.57,4.197,2.39c0.497,1.82-0.573,3.697-2.39,4.197c-1.733,0.473-3.467,0.967-5.197,1.47
					c-6.787,1.98-13.57,4.18-20.167,6.543C1957.767,663.264,1957.38,663.327,1956.997,663.327z M2025.297,646.287
					c-1.67,0-3.127-1.223-3.373-2.923c-0.273-1.863,1.02-3.597,2.887-3.867c8.9-1.297,17.973-2.257,26.967-2.863
					c1.927-0.057,3.51,1.297,3.636,3.177c0.127,1.883-1.297,3.51-3.177,3.637c-8.82,0.59-17.717,1.537-26.447,2.803
					C2025.623,646.278,2025.46,646.287,2025.297,646.287z M2122.366,645.901c-0.153,0-0.31-0.01-0.467-0.033
					c-8.753-1.2-17.656-2.073-26.466-2.593c-1.884-0.11-3.32-1.727-3.207-3.607c0.11-1.88,1.753-3.267,3.607-3.207
					c8.987,0.53,18.066,1.42,26.993,2.643c1.867,0.257,3.173,1.98,2.917,3.847C2125.51,644.661,2124.046,645.901,2122.366,645.901z"
					/>
				<path style="fill:#FFFFFF;" d="M2178.399,658.364c-0.333,0-0.673-0.05-1.01-0.153c-4.327-1.34-8.693-2.607-12.98-3.757
					c-1.823-0.49-2.903-2.36-2.413-4.18c0.493-1.823,2.387-2.897,4.18-2.413c4.377,1.173,8.827,2.463,13.233,3.83
					c1.803,0.56,2.81,2.47,2.25,4.27C2181.206,657.427,2179.856,658.364,2178.399,658.364z"/>
			</g>
			<g>
				
					<linearGradient id="SVGID_00000165943390152708752460000008294487374985494426_" gradientUnits="userSpaceOnUse" x1="1807.8986" y1="991.175" x2="2343.709" y2="991.175">
					<stop  offset="0" style="stop-color:#4F52FF"/>
					<stop  offset="1" style="stop-color:#4042E2"/>
				</linearGradient>
				<path style="fill:url(#SVGID_00000165943390152708752460000008294487374985494426_);" d="M2186.106,744.342
					c-1.539-0.91-3.486-0.742-4.848,0.416l-38.842,33.057c-22.73-7.12-46.76-10.668-71.266-10.136l-28.097-42.528
					c-0.985-1.492-2.809-2.193-4.54-1.749l-59.25,15.24c-1.732,0.446-2.99,1.941-3.134,3.722l-4.089,50.808
					c-21.721,11.361-41.057,26.06-57.53,43.265l-49.972-10.211c-1.751-0.358-3.537,0.435-4.447,1.973l-31.12,52.673
					c-0.91,1.541-0.742,3.487,0.416,4.848l33.057,38.842c-7.121,22.73-10.666,46.76-10.135,71.266l-42.529,28.097
					c-1.492,0.985-2.194,2.808-1.749,4.54l15.241,59.251c0.445,1.731,1.94,2.99,3.722,3.133l50.808,4.088
					c11.36,21.722,26.06,41.057,43.265,57.53l-10.213,49.973c-0.357,1.751,0.436,3.537,1.974,4.446l52.673,31.12
					c1.54,0.91,3.487,0.742,4.848-0.417l38.842-33.057c22.73,7.121,46.76,10.667,71.267,10.136l28.097,42.529
					c0.985,1.491,2.809,2.194,4.539,1.748l59.253-15.24c1.731-0.445,2.989-1.941,3.132-3.722l4.088-50.808
					c21.722-11.359,41.058-26.061,57.531-43.266l49.971,10.212c1.751,0.359,3.538-0.435,4.447-1.974l31.12-52.673
					c0.909-1.539,0.742-3.486-0.416-4.848l-33.056-38.842c7.12-22.73,10.667-46.76,10.135-71.266l42.53-28.097
					c1.49-0.984,2.193-2.808,1.748-4.539l-15.24-59.251c-0.445-1.732-1.94-2.99-3.722-3.134l-50.808-4.088
					c-11.36-21.722-26.062-41.056-43.265-57.53l10.211-49.972c0.358-1.752-0.434-3.537-1.974-4.447L2186.106,744.342z"/>
				<path style="fill:#91B3FA;" d="M2075.886,1050.645c-5.64,0-11.31-0.81-16.873-2.447c-15.23-4.487-27.803-14.633-35.403-28.577
					c-7.6-13.94-9.313-30.006-4.83-45.24c4.487-15.23,14.633-27.803,28.576-35.403l0,0c13.94-7.597,30.003-9.313,45.24-4.83
					c15.23,4.487,27.803,14.633,35.403,28.577c7.6,13.94,9.313,30.006,4.83,45.24c-4.487,15.23-14.633,27.803-28.576,35.403
					C2095.403,1048.192,2085.693,1050.645,2075.886,1050.645z M2075.736,941.946c-8.116,0-16.153,2.03-23.48,6.027l0,0
					c-11.54,6.287-19.94,16.697-23.653,29.303c-3.71,12.607-2.293,25.906,4,37.446c6.287,11.54,16.697,19.94,29.303,23.653
					c12.603,3.707,25.906,2.297,37.446-4c11.54-6.286,19.94-16.696,23.653-29.303c3.71-12.607,2.29-25.907-4-37.447
					c-6.29-11.54-16.697-19.94-29.303-23.653C2085.1,942.619,2080.403,941.946,2075.736,941.946z M2049.806,943.476h0.033H2049.806z
					"/>
				<path style="fill:#91B3FA;" d="M2075.26,1145.105c-68.03,0.003-130.239-45.853-147.953-114.709
					c-3.263-12.696-4.88-25.556-4.877-38.33c0.003-26.98,7.213-53.576,21.3-77.416c20.753-35.126,53.943-60.07,93.456-70.233l0,0
					c0.35-0.09,0.7-0.177,1.053-0.267c9.74-2.433,19.703-3.91,29.66-4.4c0.17-0.01,0.34-0.017,0.51-0.027
					c0.316-0.013,0.63-0.027,0.947-0.04l0.407,10.233c-10.077,0.397-20.177,1.883-30.023,4.42
					c-36.866,9.48-67.833,32.75-87.193,65.523c-13.143,22.24-19.87,47.053-19.873,72.226c0,11.917,1.507,23.913,4.553,35.756
					c9.48,36.866,32.75,67.833,65.523,87.193c32.766,19.36,71.113,24.803,107.986,15.32
					c64.246-16.523,107.033-74.573,107.023-138.046c0-11.713-1.46-23.607-4.51-35.46c-6.437-25.023-19.503-47.786-37.786-65.836
					l7.193-7.287c19.603,19.35,33.613,43.753,40.513,70.57c3.267,12.707,4.83,25.457,4.83,38.01
					c0.01,68.033-45.846,130.256-114.709,147.969C2100.576,1143.541,2087.816,1145.105,2075.26,1145.105z"/>
			</g>
		</g>
		<g>
			<g>
				<g>
					
						<linearGradient id="SVGID_00000021106785161357805110000012249820019079734672_" gradientUnits="userSpaceOnUse" x1="-618.221" y1="3452.6497" x2="-615.5269" y2="3738.2278" gradientTransform="matrix(-1 0 0 1 2142.803 0)">
						<stop  offset="0" style="stop-color:#09005D"/>
						<stop  offset="1" style="stop-color:#1A0F91"/>
					</linearGradient>
					<path style="fill:url(#SVGID_00000021106785161357805110000012249820019079734672_);" d="M2847.668,3115.848
						c0,0,3.349,18.599,4.672,40.679c0.564,9.408-6.409,17.583-15.79,18.493c-32.667,3.168-107.025,9.019-154.505,2.167
						c-6.651-0.96-9.293-9.129-4.376-13.71c19.578-18.24,66.857-53.719,144.676-61.475L2847.668,3115.848z"/>
					
						<linearGradient id="SVGID_00000101096993957035983160000013550990102390007426_" gradientUnits="userSpaceOnUse" x1="-687.0591" y1="3133.7314" x2="-701.877" y2="3017.8838" gradientTransform="matrix(-1 0 0 1 2142.803 0)">
						<stop  offset="0" style="stop-color:#FEBBBA"/>
						<stop  offset="1" style="stop-color:#FF928E"/>
					</linearGradient>
					<path style="fill:url(#SVGID_00000101096993957035983160000013550990102390007426_);" d="M2863.908,3073.923l-16.516,40.483
						c-2.263,5.548-7.892,8.996-13.851,8.373c-4.044-0.423-8.833-1.199-13.491-2.613c-9.321-2.829-14.578-12.709-11.788-22.042
						l12.466-41.697L2863.908,3073.923z"/>
					
						<linearGradient id="SVGID_00000160186211292188053240000016419287804930503602_" gradientUnits="userSpaceOnUse" x1="-1004.0556" y1="3456.2896" x2="-1001.3615" y2="3741.8672" gradientTransform="matrix(-1 0 0 1 2142.803 0)">
						<stop  offset="0" style="stop-color:#09005D"/>
						<stop  offset="1" style="stop-color:#1A0F91"/>
					</linearGradient>
					<path style="fill:url(#SVGID_00000160186211292188053240000016419287804930503602_);" d="M3146.28,3148.09
						c0,0-33.073,27.672-45.959,63.167c-3.544,9.763,3.947,20.048,14.333,20.048h68.06c9.961,0,17.599-8.961,15.863-18.771
						C3194.242,3188.023,3181.74,3148.193,3146.28,3148.09z"/>
					
						<linearGradient id="SVGID_00000102528948612999459350000003877717820928335539_" gradientUnits="userSpaceOnUse" x1="-1010.9207" y1="3173.4358" x2="-1025.3602" y2="3060.5459" gradientTransform="matrix(-1 0 0 1 2142.803 0)">
						<stop  offset="0" style="stop-color:#FEBBBA"/>
						<stop  offset="1" style="stop-color:#FF928E"/>
					</linearGradient>
					<path style="fill:url(#SVGID_00000102528948612999459350000003877717820928335539_);" d="M3187.251,3112.076
						c0,0-6.68,29.569-11.816,49.11c-0.932,3.547-4.717,5.493-8.171,4.258c-10.3-3.682-18.681-5.311-24.774-4.493
						c-2.817,0.378-5.275-1.965-5.313-4.806l-0.64-49.113L3187.251,3112.076z"/>
					
						<linearGradient id="SVGID_00000005254715274715297570000001178358408578631820_" gradientUnits="userSpaceOnUse" x1="-1111.8285" y1="2744.4717" x2="-667.3832" y2="2744.4717" gradientTransform="matrix(-1 0 0 1 2142.803 0)">
						<stop  offset="0" style="stop-color:#09005D"/>
						<stop  offset="1" style="stop-color:#1A0F91"/>
					</linearGradient>
					<path style="fill:url(#SVGID_00000005254715274715297570000001178358408578631820_);" d="M3011.354,2446.719l-201.168,613.712
						c0,0,38.586,25.269,56.968,24.217l238.942-493.218c0,0,41.813,303.904,21.552,522.083l68.439,5.221
						c0,0,111.284-557.56,26.994-748.527L3011.354,2446.719z"/>
					
						<linearGradient id="SVGID_00000172405978074457723390000013683193893387852217_" gradientUnits="userSpaceOnUse" x1="-1019.641" y1="2676.2834" x2="-1003.4762" y2="2643.9539" gradientTransform="matrix(-1 0 0 1 2142.803 0)">
						<stop  offset="0" style="stop-color:#4F52FF"/>
						<stop  offset="1" style="stop-color:#4042E2"/>
					</linearGradient>
					<path style="fill:url(#SVGID_00000172405978074457723390000013683193893387852217_);" d="M3104.803,2586.128
						c0.08,0,0.164-0.006,0.245-0.015c1.067-0.135,1.824-1.109,1.689-2.176l-7.807-61.964c-0.133-1.065-1.098-1.809-2.176-1.689
						c-1.067,0.135-1.824,1.109-1.689,2.176l7.807,61.964C3102.996,2585.409,3103.835,2586.128,3104.803,2586.128z"/>
				</g>
				
					<linearGradient id="SVGID_00000170262279594365625150000012335385136093200000_" gradientUnits="userSpaceOnUse" x1="3914.4548" y1="1357.5635" x2="2793.2363" y2="2422.4641">
					<stop  offset="0" style="stop-color:#4F52FF"/>
					<stop  offset="1" style="stop-color:#4042E2"/>
				</linearGradient>
				<path style="fill:url(#SVGID_00000170262279594365625150000012335385136093200000_);" d="M2973.639,1906.683
					c0,0,162.984,14.473,139.929,130.603c0,0,90.094,169.547,132.215,369.27c1.371,6.499-2.983,12.838-9.53,13.958l-271.424,46.473
					c-7.488,1.282-14.709-3.387-16.612-10.742l-64.852-250.64l-25.271,116.532l-80.298-20.922l67.598-342.425
					C2845.395,1958.79,2854.824,1908.83,2973.639,1906.683z"/>
				<path style="fill:#91B3FA;" d="M2881.986,2194.395c0.142,0,0.286-0.014,0.432-0.045c1.089-0.239,1.782-1.314,1.545-2.405
					l-22.625-103.887c-0.239-1.089-1.301-1.776-2.406-1.545c-1.089,0.239-1.782,1.314-1.545,2.405l22.625,103.887
					C2880.22,2193.75,2881.056,2194.395,2881.986,2194.395z"/>
				
					<linearGradient id="SVGID_00000155143232258747410490000013208916606988705944_" gradientUnits="userSpaceOnUse" x1="-901.7864" y1="2431.988" x2="-699.4099" y2="2431.988" gradientTransform="matrix(-1 0 0 1 2142.803 0)">
					<stop  offset="0" style="stop-color:#FEBBBA"/>
					<stop  offset="1" style="stop-color:#FF928E"/>
				</linearGradient>
				<path style="fill:url(#SVGID_00000155143232258747410490000013208916606988705944_);" d="M2898.369,2503.535
					c8.551-4.701,18.559-6.002,28.028-3.646l18.884,4.7c4.015,1,7.991-1.764,8.453-5.876l19.542-173.941
					c24.435,11.604,59.688,10.217,71.313,9.368l-44.979,205.063h-157.398L2898.369,2503.535z"/>
				
					<linearGradient id="SVGID_00000173879130307775813910000006164849774683762360_" gradientUnits="userSpaceOnUse" x1="-715.2917" y1="2178.2971" x2="-337.3626" y2="2178.2971" gradientTransform="matrix(-1 0 0 1 2142.803 0)">
					<stop  offset="0" style="stop-color:#FEBBBA"/>
					<stop  offset="1" style="stop-color:#FF928E"/>
				</linearGradient>
				<path style="fill:url(#SVGID_00000173879130307775813910000006164849774683762360_);" d="M2480.166,2126.238l4.758-15.811
					c2.739-9.099,9.464-16.459,18.28-20.005l86.044-34.602c0,0,1.299-11.035-18.18-18.534
					c-19.479-7.499-14.926-29.315-14.926-29.315s26.613,12.14,65.571,31.393c22.281,11.011,34.781,30.452,41.41,45.086
					l194.972,237.687l-22.891,15.729c-30.101,20.682-71.501,10.522-88.607-21.746l-105.623-202.54
					C2587.944,2129.511,2534.283,2132.557,2480.166,2126.238z"/>
				<g>
					
						<linearGradient id="SVGID_00000044899631701433742810000007631338990053527725_" gradientUnits="userSpaceOnUse" x1="2939.6248" y1="1989.0704" x2="2864.5317" y2="1677.3215">
						<stop  offset="0" style="stop-color:#FEBBBA"/>
						<stop  offset="1" style="stop-color:#FF928E"/>
					</linearGradient>
					<path style="fill:url(#SVGID_00000044899631701433742810000007631338990053527725_);" d="M2920.838,1795.802l50.13,140.299
						c0,0-44.39,34.703-76.783,22.969l-25.261-80.423C2868.924,1878.647,2888.217,1780.354,2920.838,1795.802z"/>
					<g>
						
							<linearGradient id="SVGID_00000086666492989549823090000016807059904782617227_" gradientUnits="userSpaceOnUse" x1="-660.6037" y1="1746.3632" x2="-824.5864" y2="1963.299" gradientTransform="matrix(-1 0 0 1 2142.803 0)">
							<stop  offset="0" style="stop-color:#FEBBBA"/>
							<stop  offset="1" style="stop-color:#FF928E"/>
						</linearGradient>
						<path style="fill:url(#SVGID_00000086666492989549823090000016807059904782617227_);" d="M2771.226,1745.415
							c0,2.162,48.289,136.698,48.289,136.698l76.232-29.205l-26.823-134.312
							C2868.924,1718.597,2771.226,1709.222,2771.226,1745.415z"/>
						
							<linearGradient id="SVGID_00000052064851040963255720000007976915247328507037_" gradientUnits="userSpaceOnUse" x1="-785.8397" y1="1798.6932" x2="-589.9597" y2="1798.6932" gradientTransform="matrix(-1 0 0 1 2142.803 0)">
							<stop  offset="0" style="stop-color:#09005D"/>
							<stop  offset="1" style="stop-color:#1A0F91"/>
						</linearGradient>
						<path style="fill:url(#SVGID_00000052064851040963255720000007976915247328507037_);" d="M2855.552,1751.318l19.657,69.599
							c0.252,0.893,0.381,1.792,0.382,2.719c0.008,5.677-1.398,25.209-21.294,22.552c-18.053-2.411-34.565-4.342-45.065,0.603
							c-4.715,2.22-6.969,7.646-5.208,12.55c4.391,12.222,14.794,39.582,27.458,61.972c2.57,4.544,8.207,6.311,12.959,4.149
							c14.317-6.514,44.129-21.097,65.364-38.447c2.877-2.351,4.26-6.049,3.574-9.701c-3.341-17.804-13.293-71.954-13.732-87.473
							c-0.412-14.566,15.932-25.686,23.128-29.866c2.359-1.37,4.037-3.627,4.677-6.279c2.258-9.375,4.176-30.593-22.889-35.269
							c-5.665-0.979-9.358-6.401-8.208-12.033c2.291-11.213,1.558-27.713-19.735-33.79c-21.642-6.177-35.26,6.85-42.187,16.84
							c-2.801,4.039-8.041,5.349-12.528,3.344c-2.555-1.141-5.641-1.192-8.957,1.604c-4.469,3.768-11.272,2.621-14.557-2.214
							c-6.31-9.289-17.775-18.561-37.184-12.281c-34.441,11.143-32.794,50.852-20.169,72.44
							c12.625,21.587,49.278,7.383,66.629-6.922c13.193-10.876,33.281-4.37,42.152-0.626
							C2852.629,1745.975,2854.723,1748.382,2855.552,1751.318z"/>
						
							<linearGradient id="SVGID_00000016761306365990848220000012889226811584274363_" gradientUnits="userSpaceOnUse" x1="-900.774" y1="1918.1593" x2="-769.2464" y2="1783.2153" gradientTransform="matrix(-1 0 0 1 2142.803 0)">
							<stop  offset="0" style="stop-color:#FEBBBA"/>
							<stop  offset="1" style="stop-color:#FF928E"/>
						</linearGradient>
						<path style="fill:url(#SVGID_00000016761306365990848220000012889226811584274363_);" d="M2906.552,1815.255
							c0,0-20.383-38.559-6.905-50.667c13.479-12.108,36.315-10.127,35.701,20.025
							C2934.584,1822.119,2906.552,1815.255,2906.552,1815.255z"/>
					</g>
				</g>
				<path style="fill:#91B3FA;" d="M3028.773,2336.751c11.123,0,19.063-0.845,19.922-0.939l1.446-0.162l59.347-276.7
					c0.235-1.091-0.46-2.167-1.551-2.399c-1.103-0.243-2.165,0.462-2.399,1.551l-58.731,273.829
					c-8.832,0.775-55.997,3.907-80.895-13.732l51.411-240.398l-10.731-20.222c-0.523-0.987-1.746-1.362-2.733-0.839
					c-0.987,0.525-1.361,1.746-0.838,2.733l10.044,18.923l-51.648,241.503l1.032,0.776
					C2980.439,2334.191,3009.417,2336.751,3028.773,2336.751z"/>
			</g>
			<g>
				<path style="fill:#91B3FA;" d="M2951.976,3255c1.541,0,3.106-0.336,4.613-1.042c5.929-2.784,8.668-10.288,6.117-16.759
					l-245.117-621.942c-2.549-6.469-9.42-9.457-15.355-6.677c-5.929,2.784-8.669,10.288-6.118,16.759l245.117,621.942
					C2943.137,3252.108,2947.447,3255,2951.976,3255z"/>
				<path style="fill:#91B3FA;" d="M2675.841,3255c4.529,0,8.84-2.89,10.742-7.719l245.117-621.942
					c2.551-6.471-0.188-13.975-6.117-16.759c-5.926-2.784-12.802,0.203-15.355,6.677l-245.117,621.942
					c-2.551,6.471,0.188,13.975,6.118,16.759C2672.733,3254.664,2674.301,3255,2675.841,3255z"/>
				<path style="fill:#91B3FA;" d="M1908.615,3255c1.541,0,3.106-0.336,4.613-1.042c5.929-2.784,8.668-10.288,6.118-16.759
					l-245.117-621.942c-2.551-6.469-9.418-9.457-15.355-6.677c-5.929,2.784-8.668,10.288-6.118,16.759l245.117,621.942
					C1899.775,3252.108,1904.085,3255,1908.615,3255z"/>
				<path style="fill:#91B3FA;" d="M1632.481,3255c4.529,0,8.84-2.89,10.742-7.719l245.117-621.942
					c2.551-6.471-0.188-13.975-6.118-16.759c-5.926-2.784-12.802,0.203-15.355,6.677l-245.117,621.942
					c-2.551,6.471,0.188,13.975,6.118,16.759C1629.373,3254.664,1630.941,3255,1632.481,3255z"/>
			</g>
			<g>
				<rect x="2044.011" y="2835.897" style="fill:#7D97F4;" width="28.981" height="313.412"/>
				<path style="fill:#7D97F4;" d="M1931.585,3155.352h253.832v-9.515c0-5.164-4.186-9.35-9.35-9.35h-235.132
					c-5.164,0-9.35,4.186-9.35,9.35V3155.352z"/>
				<path style="fill:#7D97F4;" d="M1893.914,2825.019c0,17.142,14.025,31.166,31.166,31.166h256.812
					c17.141,0,31.166-14.025,31.166-31.166v-28.18c0-17.142-14.025-31.166-31.166-31.166H1925.08
					c-17.141,0-31.166,14.025-31.166,31.166V2825.019z"/>
			</g>
			<g>
				
					<linearGradient id="SVGID_00000145769136380904141790000017642102389768507571_" gradientUnits="userSpaceOnUse" x1="-231.9727" y1="2884.0413" x2="-25.9074" y2="2884.0413" gradientTransform="matrix(-1 0 0 1 2142.803 0)">
					<stop  offset="0" style="stop-color:#FEBBBA"/>
					<stop  offset="1" style="stop-color:#FF928E"/>
				</linearGradient>
				<path style="fill:url(#SVGID_00000145769136380904141790000017642102389768507571_);" d="M2272.453,2626.923
					c0,0,43.065,6.676,91.483,39.043c7.62,5.094,11.8,13.974,10.652,23.067c-5.798,45.924-29.636,194.567-108.242,339.748
					c-4.145,7.655-5.336,16.567-3.507,25.078l13.656,63.554l25.326,23.747h-65.234l-43.434-117.541l18.573-5.873
					c14.4-4.554,24.28-17.799,24.541-32.899l2.179-126.088c-1.859-56.175,34.445-94.934,34.445-94.934l-104.181-5.069
					L2272.453,2626.923z"/>
				
					<linearGradient id="SVGID_00000094580502121129987410000010219634553272000660_" gradientUnits="userSpaceOnUse" x1="-105.8893" y1="3018.3135" x2="-136.1983" y2="3483.0505" gradientTransform="matrix(-1 0 0 1 2142.803 0)">
					<stop  offset="0" style="stop-color:#4F52FF"/>
					<stop  offset="1" style="stop-color:#4042E2"/>
				</linearGradient>
				<path style="fill:url(#SVGID_00000094580502121129987410000010219634553272000660_);" d="M2327.293,3152.626
					c5.941,7.775-63.941,18.035-99.248,1.029c0,0-48.942-85.152-48.942-128.995c0,0,3.885-8.939,32.622-6.913
					c0,0,16.433,100.825,33.785,112.119c17.352,11.294,48.547,1.143,48.547,1.143S2318.528,3141.154,2327.293,3152.626z"/>
				
					<linearGradient id="SVGID_00000020370344505628199080000009007046840242734251_" gradientUnits="userSpaceOnUse" x1="2451.9023" y1="2878.2615" x2="2841.0208" y2="2622.2625">
					<stop  offset="0" style="stop-color:#FEBBBA"/>
					<stop  offset="1" style="stop-color:#FF928E"/>
				</linearGradient>
				<path style="fill:url(#SVGID_00000020370344505628199080000009007046840242734251_);" d="M2181.892,2765.672
					c0.554-0.959,112.166-13.421,112.166-13.421s-3.653,33.936,7.763,80.652c11.416,46.716,175.287,249.114,175.287,249.114
					l-17.182,54.469c53.126,18.506,105.384,21.464,156.806,9.433l-106.486-63.902c0,0-99.658-339.616-160.701-400.203
					l-111.878-38.706L2181.892,2765.672z"/>
				
					<linearGradient id="SVGID_00000113340648768848671610000016884115405327307958_" gradientUnits="userSpaceOnUse" x1="2177.2522" y1="2411.1851" x2="2106.7102" y2="2668.322">
					<stop  offset="0" style="stop-color:#4F52FF"/>
					<stop  offset="1" style="stop-color:#4042E2"/>
				</linearGradient>
				<path style="fill:url(#SVGID_00000113340648768848671610000016884115405327307958_);" d="M1931.585,2568.061
					c0,0-64.305,95.646-69.582,139.274c-5.277,43.629,17.615,61.357,85.087,64.281c67.472,2.923,247.596,2.877,247.596,2.877
					l153.733-131.385c0,0-112.034-39.977-141.162-51.281C2178.13,2580.524,1931.585,2568.061,1931.585,2568.061z"/>
				
					<linearGradient id="SVGID_00000079455906931198408790000009834110440879655597_" gradientUnits="userSpaceOnUse" x1="-398.3671" y1="2999.2385" x2="-428.6761" y2="3463.9768" gradientTransform="matrix(-1 0 0 1 2142.803 0)">
					<stop  offset="0" style="stop-color:#4F52FF"/>
					<stop  offset="1" style="stop-color:#4042E2"/>
				</linearGradient>
				<path style="fill:url(#SVGID_00000079455906931198408790000009834110440879655597_);" d="M2466.418,3118.143
					c0,0-18.498,17.917-6.003,37.853c0,0,146.541,25.975,186.328,14.189c0,0-8.261-18.856-53.063-40.319l3.306,2.538
					c4.183,3.211,1.73,9.901-3.536,9.6C2563.928,3140.321,2502.832,3134.913,2466.418,3118.143z"/>
			</g>
			<g>
				
					<linearGradient id="SVGID_00000101080322063881017150000016827770084957926554_" gradientUnits="userSpaceOnUse" x1="1898.8279" y1="2407.3999" x2="2108.7366" y2="2038.7799">
					<stop  offset="0" style="stop-color:#09005D"/>
					<stop  offset="1" style="stop-color:#1A0F91"/>
				</linearGradient>
				<path style="fill:url(#SVGID_00000101080322063881017150000016827770084957926554_);" d="M2061.54,2030.754
					c-9.717,3.031-44.742,15.6-40.22,38.127c0.6,2.989-2.216,5.516-5.159,4.724c-15.091-4.062-48.43-9.183-69.096,16.713
					c-18.246,22.864-4.611,44.439,6.506,56.282c2.685,2.86,0.428,7.504-3.464,7.013c-27.746-3.502-88.034-4.342-97.899,52.136
					c-9.199,52.667,27.459,67.518,49.2,71.705c3.678,0.708,4.539,5.543,1.375,7.55c-10.847,6.881-23.412,21.099-18.334,49.159
					c7.959,43.979,94.184,40.379,104.262,39.807c0.638-0.036,1.242-0.221,1.797-0.538l138.11-78.768
					c1.077-0.614,1.823-1.677,2.034-2.898l27.882-161.027c0.226-1.302-0.183-2.635-1.099-3.587l-91.693-95.303
					C2064.653,2030.715,2063.04,2030.286,2061.54,2030.754z"/>
				
					<linearGradient id="SVGID_00000044884255245468666890000008651706012486838932_" gradientUnits="userSpaceOnUse" x1="8.9192" y1="2267.9146" x2="239.9763" y2="2770.8025" gradientTransform="matrix(-1 0 0 1 2142.803 0)">
					<stop  offset="0" style="stop-color:#4F52FF"/>
					<stop  offset="1" style="stop-color:#4042E2"/>
				</linearGradient>
				<path style="fill:url(#SVGID_00000044884255245468666890000008651706012486838932_);" d="M2105.49,2555.4
					c0,0,74.883-71.304,111.744-118.532c19.925-25.529,26.183-59.137,16.968-90.183c-16.829-56.697-46.736-115.42-49.464-124.56
					c-4.18-14.009-88.144-13.426-88.144-13.426s-165.224,107.232-230.14,288.875l72.906,22.697c0,0,43.14-72.375,85.765-118.39
					c0,0-73.756,97.434-76.353,137.322L2105.49,2555.4z"/>
				
					<linearGradient id="SVGID_00000054945767872777096390000017224154148730696865_" gradientUnits="userSpaceOnUse" x1="14.4882" y1="2301.3127" x2="-7.2616" y2="2161.7517" gradientTransform="matrix(-1 0 0 1 2142.803 0)">
					<stop  offset="0" style="stop-color:#FEBBBA"/>
					<stop  offset="1" style="stop-color:#FF928E"/>
				</linearGradient>
				<path style="fill:url(#SVGID_00000054945767872777096390000017224154148730696865_);" d="M2194.892,2143.833
					c-0.876,2.912-22.792,75.563-24.506,77.071s-48.061,4-69.875-10.909l37.01-77.475L2194.892,2143.833z"/>
				<g>
					
						<linearGradient id="SVGID_00000054959188087536110490000009500082875517818262_" gradientUnits="userSpaceOnUse" x1="-79.519" y1="2038.2965" x2="112.6041" y2="2168.7949" gradientTransform="matrix(-1 0 0 1 2142.803 0)">
						<stop  offset="0" style="stop-color:#FEBBBA"/>
						<stop  offset="1" style="stop-color:#FF928E"/>
					</linearGradient>
					<path style="fill:url(#SVGID_00000054959188087536110490000009500082875517818262_);" d="M2158.894,1991.238
						c0,0,39.563,16.706,66.464,73.875c26.901,57.17,6.812,83.566-18.421,87.19c-25.233,3.624-62.969,3.072-102.885-33.859
						C2064.136,2081.513,2107.464,1971.436,2158.894,1991.238z"/>
					
						<linearGradient id="SVGID_00000074427352759410867260000007266433526256499365_" gradientUnits="userSpaceOnUse" x1="1897.9945" y1="2406.9255" x2="2107.9023" y2="2038.3068">
						<stop  offset="0" style="stop-color:#09005D"/>
						<stop  offset="1" style="stop-color:#1A0F91"/>
					</linearGradient>
					<path style="fill:url(#SVGID_00000074427352759410867260000007266433526256499365_);" d="M2130.883,2087.923
						c0,0-29.849-83.641,44.307-84.63l17.449,12.196c0,0,27.209-46.374-17.449-68.51s-96.925-3.852-115.929,56.314
						c-19.005,60.166-22.25,100.441,9.367,129.227s44.648-3.854,44.648-3.854s-17.218-26.924-10.208-41.328
						c7.009-14.405,23.176,2.98,23.176,2.98L2130.883,2087.923z"/>
					
						<linearGradient id="SVGID_00000003810932212020916760000014990280193292784795_" gradientUnits="userSpaceOnUse" x1="-68.0034" y1="2021.3431" x2="124.1194" y2="2151.8416" gradientTransform="matrix(-1 0 0 1 2142.803 0)">
						<stop  offset="0" style="stop-color:#FEBBBA"/>
						<stop  offset="1" style="stop-color:#FF928E"/>
					</linearGradient>
					<path style="fill:url(#SVGID_00000003810932212020916760000014990280193292784795_);" d="M2122.566,2097.239
						c0,0-15.092-43.086-35.224-25.927c-20.133,17.158,16.363,39.799,30.65,47.133L2122.566,2097.239z"/>
				</g>
				
					<linearGradient id="SVGID_00000152973461729940687840000016605954302881213338_" gradientUnits="userSpaceOnUse" x1="1969.3799" y1="2615.9734" x2="2232.2048" y2="2370.2153">
					<stop  offset="0" style="stop-color:#FEBBBA"/>
					<stop  offset="1" style="stop-color:#FF928E"/>
				</linearGradient>
				<path style="fill:url(#SVGID_00000152973461729940687840000016605954302881213338_);" d="M2258.045,2560.694l-55.018-53.03
					l-76.11,32.153c0,0-75.76,11.738-119.12,0s-43.36-11.738-43.36-11.738l-97.984-30.505l-15.389,43.492
					c-3.907,11.042,0.019,23.301,9.567,30.085c8.477,6.024,18.414,12.644,24.747,15.415c12.904,5.645,318.089-3.905,318.089-3.905
					L2258.045,2560.694z"/>
			</g>
			<g>
				
					<linearGradient id="SVGID_00000160179351982530601040000015639211503146331839_" gradientUnits="userSpaceOnUse" x1="62.0882" y1="2562.0713" x2="-195.0523" y2="2632.5466" gradientTransform="matrix(-0.9988 -0.0494 -0.0494 0.9988 2184.2722 -55.0328)">
					<stop  offset="0" style="stop-color:#09005D"/>
					<stop  offset="1" style="stop-color:#1A0F91"/>
				</linearGradient>
				<path style="fill:url(#SVGID_00000160179351982530601040000015639211503146331839_);" d="M2049.839,2585.695
					c0.244,0.012,0.488,0.019,0.734,0.017l319.15-0.348c7.89-0.007,14.278-6.409,14.27-14.299
					c-0.008-7.893-6.434-14.412-14.302-14.271l-319.15,0.348c-7.889,0.007-14.278,6.409-14.27,14.299
					C2036.28,2579.085,2042.291,2585.321,2049.839,2585.695z"/>
				
					<linearGradient id="SVGID_00000105400861121139980790000007769728972563626382_" gradientUnits="userSpaceOnUse" x1="-242.2324" y1="2378.45" x2="-424.6854" y2="2571.2915" gradientTransform="matrix(-1 0 0 1 2142.803 0)">
					<stop  offset="0" style="stop-color:#09005D"/>
					<stop  offset="1" style="stop-color:#1A0F91"/>
				</linearGradient>
				<path style="fill:url(#SVGID_00000105400861121139980790000007769728972563626382_);" d="M2656.625,2295.926h-265.79
					c-19.607,0-37.454,11.315-45.818,29.05l-122.875,260.549h330.306c12.635,0,23.988-7.72,28.632-19.471l95.284-241.099
					C2681.871,2311.023,2671.604,2295.926,2656.625,2295.926z"/>
				
					<ellipse transform="matrix(0.3064 -0.9519 0.9519 0.3064 -592.1724 4059.1719)" style="fill:#91B3FA;" cx="2489.306" cy="2435.933" rx="34.038" ry="20.94"/>
			</g>
			<g>
				<path style="fill:#91B3FA;" d="M2689.939,2575.503l314.098,0v-32.415l-314.098,0
					C2696.662,2543.089,2696.662,2575.503,2689.939,2575.503z"/>
				
					<linearGradient id="SVGID_00000036974548465422885280000008949407464872937604_" gradientUnits="userSpaceOnUse" x1="-712.1143" y1="2738.0386" x2="-713.4598" y2="2657.3013" gradientTransform="matrix(-1 0 0 1 2142.803 0)">
					<stop  offset="0" style="stop-color:#E1473D"/>
					<stop  offset="1" style="stop-color:#E9605A"/>
				</linearGradient>
				<path style="fill:url(#SVGID_00000036974548465422885280000008949407464872937604_);" d="M3000.624,2575.503
					c1.877,0,3.413-1.536,3.413-3.413v-25.587c0-1.877-1.536-3.413-3.413-3.413h-316.85c-1.877,0-3.413-1.536-3.413-3.414v-0.503
					c0-1.877,1.536-3.413,3.413-3.413h338.248c7.492,0,13.565,6.073,13.565,13.565v20.718c0,7.064-5.726,12.79-12.79,12.79h-339.023
					c-1.877,0-3.413-1.536-3.413-3.413v-0.503c0-1.877,1.536-3.413,3.413-3.413H3000.624z"/>
			</g>
			<path style="fill:#91B3FA;" d="M1603.789,2597.353c-0.806-3.618,0.291-7.36,2.992-10.203c2.701-2.843,6.722-4.489,10.966-4.489
				h1437.457c5.581,0,10.776,2.47,13.783,6.553c3.007,4.083,3.41,9.215,1.069,13.615l-15.577,29.28
				c-3.567,6.705-11.296,10.998-19.801,10.998H1627.61c-7.911,0-14.712-4.872-16.214-11.618L1603.789,2597.353z"/>
		</g>
	</g>
</g>
</svg>
